<svg id="svg" version="1.1" xmlns="http://www.w3.org/2000/svg" xmlns:xlink="http://www.w3.org/1999/xlink" width="400" height="400" viewBox="0, 0, 400,400"><g id="svgg"><path id="path0" d="M0.000 200.000 L 0.000 400.000 200.000 400.000 L 400.000 400.000 400.000 200.000 L 400.000 0.000 200.000 0.000 L 0.000 0.000 0.000 200.000 M325.800 121.200 C 325.936 121.420,326.579 121.600,327.229 121.600 C 327.879 121.600,328.813 121.808,329.305 122.062 C 331.182 123.033,331.607 123.200,332.195 123.200 C 332.528 123.200,332.800 123.380,332.800 123.600 C 332.800 123.820,333.160 124.000,333.600 124.000 C 334.040 124.000,334.400 124.180,334.400 124.400 C 334.400 124.620,334.688 124.800,335.040 124.800 C 335.391 124.800,336.183 125.340,336.800 126.000 C 337.417 126.660,338.131 127.200,338.388 127.200 C 339.044 127.200,344.800 133.161,344.800 133.841 C 344.800 134.148,344.950 134.400,345.132 134.400 C 345.315 134.400,345.720 134.895,346.032 135.500 C 346.344 136.105,346.699 136.690,346.822 136.800 C 347.214 137.152,348.800 140.772,348.800 141.316 C 348.800 141.604,348.952 142.011,349.137 142.220 C 350.970 144.289,350.940 159.993,349.099 161.834 C 348.935 161.999,348.800 162.375,348.800 162.671 C 348.800 163.225,347.219 166.843,346.822 167.200 C 346.699 167.310,346.344 167.895,346.032 168.500 C 345.720 169.105,345.315 169.600,345.132 169.600 C 344.950 169.600,344.800 169.847,344.800 170.148 C 344.800 170.895,338.137 177.600,337.394 177.600 C 337.067 177.600,336.800 177.752,336.800 177.937 C 336.800 178.123,335.945 178.708,334.900 179.237 C 333.855 179.767,332.940 180.335,332.867 180.500 C 332.793 180.665,332.418 180.800,332.033 180.800 C 331.648 180.800,331.210 180.923,331.059 181.074 C 330.620 181.513,327.881 182.387,326.924 182.394 C 326.442 182.397,325.936 182.580,325.800 182.800 C 325.664 183.020,324.609 183.200,323.456 183.200 C 321.175 183.200,320.400 183.671,320.400 185.056 C 320.400 185.549,320.220 186.064,320.000 186.200 C 319.780 186.336,319.600 186.876,319.600 187.400 C 319.600 187.924,319.420 188.464,319.200 188.600 C 318.980 188.736,318.802 189.152,318.805 189.524 C 318.811 190.329,316.881 197.100,316.362 198.095 C 316.163 198.477,316.000 199.094,316.000 199.466 C 316.000 200.223,315.289 202.629,314.751 203.695 C 314.558 204.077,314.400 204.741,314.400 205.171 C 314.400 205.601,314.220 206.064,314.000 206.200 C 313.780 206.336,313.600 206.876,313.600 207.400 C 313.600 207.924,313.420 208.464,313.200 208.600 C 312.980 208.736,312.800 209.456,312.800 210.200 C 312.800 210.944,312.620 211.664,312.400 211.800 C 312.180 211.936,312.000 212.476,312.000 213.000 C 312.000 213.524,311.820 214.064,311.600 214.200 C 311.380 214.336,311.200 214.876,311.200 215.400 C 311.200 215.924,311.020 216.464,310.800 216.600 C 310.580 216.736,310.400 217.467,310.400 218.224 C 310.400 218.981,310.220 219.600,310.000 219.600 C 309.780 219.600,309.600 220.125,309.600 220.767 C 309.600 221.408,309.388 222.004,309.128 222.091 C 308.419 222.327,309.049 223.560,310.090 223.972 C 312.706 225.007,321.200 235.604,321.200 237.834 C 321.200 238.132,321.560 239.017,322.000 239.800 C 322.440 240.583,322.800 241.568,322.800 241.989 C 322.800 242.409,322.980 242.864,323.200 243.000 C 323.420 243.136,323.600 244.047,323.600 245.024 C 323.600 246.001,323.780 246.800,324.000 246.800 C 324.245 246.800,324.400 248.725,324.400 251.776 C 324.400 254.663,324.232 256.857,324.000 257.000 C 323.780 257.136,323.600 258.036,323.600 259.000 C 323.600 259.964,323.420 260.864,323.200 261.000 C 322.980 261.136,322.800 261.591,322.800 262.011 C 322.800 262.432,322.440 263.417,322.000 264.200 C 321.560 264.983,321.200 265.861,321.200 266.151 C 321.200 266.904,320.088 269.029,319.392 269.607 C 319.066 269.877,318.800 270.247,318.800 270.429 C 318.800 271.022,316.499 274.166,315.032 275.578 C 313.192 277.350,313.202 277.450,315.750 282.629 C 316.933 285.033,318.679 288.620,319.631 290.600 C 320.583 292.580,321.505 294.260,321.681 294.333 C 321.856 294.407,322.000 294.812,322.000 295.233 C 322.000 295.655,322.180 296.000,322.400 296.000 C 322.620 296.000,322.800 296.360,322.800 296.800 C 322.800 297.240,322.980 297.600,323.200 297.600 C 323.420 297.600,323.600 297.960,323.600 298.400 C 323.600 298.840,323.735 299.201,323.900 299.203 C 324.259 299.207,325.200 301.144,325.200 301.880 C 325.200 302.166,325.380 302.400,325.600 302.400 C 325.820 302.400,326.000 302.670,326.000 303.000 C 326.000 303.498,326.774 303.600,330.569 303.600 C 335.460 303.600,338.604 304.120,340.712 305.279 C 341.434 305.676,342.261 306.000,342.551 306.000 C 343.304 306.000,345.429 307.112,346.007 307.808 C 346.277 308.134,346.718 308.400,346.987 308.400 C 347.256 308.400,347.802 308.760,348.200 309.200 C 348.598 309.640,349.116 310.000,349.351 310.000 C 349.919 310.000,354.800 314.854,354.800 315.419 C 354.800 315.662,355.250 316.283,355.800 316.800 C 356.897 317.831,359.600 323.009,359.600 324.080 C 359.600 324.450,359.780 324.864,360.000 325.000 C 360.220 325.136,360.400 325.676,360.400 326.200 C 360.400 326.724,360.580 327.264,360.800 327.400 C 361.020 327.536,361.200 328.616,361.200 329.800 C 361.200 330.984,361.380 332.064,361.600 332.200 C 361.820 332.336,362.000 333.686,362.000 335.200 C 362.000 336.714,361.820 338.064,361.600 338.200 C 361.380 338.336,361.200 339.236,361.200 340.200 C 361.200 341.164,361.020 342.064,360.800 342.200 C 360.580 342.336,360.400 342.930,360.400 343.521 C 360.400 344.699,357.100 351.653,356.177 352.419 C 355.860 352.682,355.600 353.084,355.600 353.311 C 355.600 353.874,349.113 360.394,348.549 360.397 C 348.301 360.399,347.881 360.662,347.615 360.982 C 347.017 361.703,341.620 364.400,340.776 364.400 C 340.437 364.400,339.989 364.553,339.780 364.741 C 337.782 366.534,321.679 366.547,320.573 364.756 C 320.452 364.560,320.003 364.400,319.576 364.400 C 319.149 364.400,318.800 364.220,318.800 364.000 C 318.800 363.780,318.457 363.600,318.038 363.600 C 317.131 363.600,314.000 361.992,314.000 361.526 C 314.000 361.347,313.757 361.200,313.459 361.200 C 313.162 361.200,312.354 360.660,311.663 360.000 C 310.972 359.340,310.277 358.800,310.117 358.800 C 309.710 358.800,306.000 355.103,306.000 354.697 C 306.000 354.514,305.559 353.923,305.020 353.384 C 303.613 351.976,300.325 345.008,300.092 342.938 C 299.983 341.972,299.738 341.085,299.547 340.967 C 299.054 340.663,299.105 328.906,299.600 328.600 C 299.820 328.464,300.000 327.838,300.000 327.210 C 300.000 325.565,303.324 318.000,304.047 318.000 C 304.241 318.000,304.400 317.757,304.400 317.459 C 304.400 317.162,304.940 316.354,305.600 315.663 C 307.119 314.073,307.121 314.091,305.149 310.014 C 299.522 298.380,295.000 289.382,294.722 289.267 C 294.545 289.193,294.400 288.788,294.400 288.367 C 294.400 287.945,294.220 287.600,294.000 287.600 C 293.780 287.600,293.600 287.351,293.600 287.046 C 293.600 286.609,293.046 286.537,290.972 286.703 C 289.526 286.819,287.411 286.722,286.272 286.488 C 285.132 286.254,283.117 285.870,281.794 285.635 C 279.161 285.167,273.512 282.958,271.727 281.697 C 270.354 280.727,270.051 280.871,266.545 284.151 C 265.163 285.444,263.649 286.770,263.182 287.098 C 262.715 287.425,261.043 288.932,259.467 290.446 C 257.892 291.961,256.454 293.200,256.273 293.200 C 255.199 293.200,254.800 294.486,254.800 297.948 C 254.800 299.931,254.620 301.664,254.400 301.800 C 254.180 301.936,254.000 302.366,254.000 302.756 C 254.000 303.681,252.430 306.765,251.183 308.288 C 250.642 308.948,249.935 309.874,249.612 310.344 C 249.288 310.815,248.825 311.200,248.581 311.200 C 248.338 311.200,247.703 311.665,247.170 312.233 C 246.030 313.448,242.393 315.200,241.012 315.200 C 240.481 315.200,239.936 315.380,239.800 315.600 C 239.478 316.122,232.522 316.122,232.200 315.600 C 232.064 315.380,231.519 315.200,230.988 315.200 C 229.803 315.200,225.914 313.460,225.214 312.617 C 224.933 312.278,224.507 312.000,224.268 312.000 C 223.677 312.000,220.800 309.153,220.800 308.568 C 220.800 308.309,220.525 307.870,220.190 307.591 C 217.357 305.241,215.790 296.587,217.294 291.600 C 218.578 287.340,223.820 280.400,225.753 280.400 C 226.109 280.400,226.400 280.220,226.400 280.000 C 226.400 279.780,226.760 279.600,227.200 279.600 C 227.640 279.600,228.000 279.420,228.000 279.200 C 228.000 278.980,228.360 278.800,228.800 278.800 C 229.240 278.800,229.600 278.620,229.600 278.400 C 229.600 278.180,230.320 278.000,231.200 278.000 C 232.080 278.000,232.800 277.820,232.800 277.600 C 232.800 277.367,234.133 277.200,236.000 277.200 C 237.867 277.200,239.200 277.367,239.200 277.600 C 239.200 279.113,241.755 277.743,245.353 274.300 C 246.905 272.815,248.314 271.600,248.484 271.600 C 248.654 271.600,250.100 270.333,251.697 268.785 C 253.294 267.237,255.095 265.668,255.700 265.299 C 256.836 264.606,257.288 262.349,256.400 261.800 C 256.180 261.664,256.000 261.059,256.000 260.456 C 256.000 258.050,255.202 257.207,252.924 257.203 C 251.782 257.201,250.736 257.020,250.600 256.800 C 250.464 256.580,248.934 256.400,247.200 256.400 C 245.466 256.400,243.936 256.220,243.800 256.000 C 243.664 255.780,242.584 255.600,241.400 255.600 C 240.216 255.600,239.136 255.420,239.000 255.200 C 238.864 254.980,237.449 254.800,235.856 254.800 C 234.263 254.800,232.789 254.638,232.580 254.441 C 232.371 254.243,230.940 253.970,229.400 253.835 C 227.860 253.700,225.520 253.493,224.200 253.377 C 222.880 253.260,221.429 252.980,220.976 252.755 C 219.526 252.035,216.681 252.475,216.174 253.497 C 215.929 253.991,215.430 254.725,215.064 255.129 C 214.699 255.533,214.400 256.024,214.400 256.221 C 214.400 256.746,209.101 262.000,208.573 262.000 C 208.326 262.000,207.798 262.360,207.400 262.800 C 207.002 263.240,206.434 263.600,206.138 263.600 C 205.842 263.600,205.600 263.753,205.600 263.940 C 205.600 264.559,200.655 266.717,197.200 267.605 C 188.625 269.810,176.853 267.723,171.801 263.102 C 171.140 262.498,170.462 262.003,170.293 262.002 C 169.867 261.999,164.800 256.896,164.800 256.469 C 164.800 256.279,164.440 255.798,164.000 255.400 C 163.560 255.002,163.200 254.468,163.200 254.213 C 163.200 253.959,162.885 253.402,162.500 252.975 C 161.511 251.879,160.000 248.864,160.000 247.986 C 160.000 247.580,159.820 247.136,159.600 247.000 C 159.380 246.864,159.200 246.144,159.200 245.400 C 159.200 244.656,159.020 243.936,158.800 243.800 C 158.561 243.652,158.400 241.004,158.400 237.200 C 158.400 233.396,158.561 230.748,158.800 230.600 C 159.020 230.464,159.200 229.829,159.200 229.189 C 159.200 228.548,159.560 227.383,160.000 226.600 C 160.440 225.817,160.800 224.939,160.800 224.649 C 160.800 223.896,161.912 221.771,162.608 221.193 C 162.934 220.923,163.200 220.524,163.200 220.306 C 163.200 219.496,168.675 213.200,169.380 213.200 C 169.639 213.200,170.336 212.693,170.930 212.073 C 171.525 211.452,172.638 210.699,173.405 210.398 C 174.172 210.097,174.800 209.704,174.800 209.525 C 174.800 209.346,175.160 209.200,175.600 209.200 C 176.040 209.200,176.400 209.020,176.400 208.800 C 176.400 208.580,176.749 208.400,177.176 208.400 C 177.603 208.400,178.064 208.220,178.200 208.000 C 178.336 207.780,178.876 207.600,179.400 207.600 C 179.924 207.600,180.464 207.420,180.600 207.200 C 180.736 206.980,181.251 206.800,181.744 206.800 C 182.237 206.800,182.828 206.612,183.058 206.382 C 183.633 205.807,194.753 205.793,195.326 206.366 C 195.565 206.605,196.343 206.800,197.056 206.800 C 197.769 206.800,198.464 206.980,198.600 207.200 C 198.736 207.420,199.287 207.600,199.824 207.600 C 200.361 207.600,200.800 207.780,200.800 208.000 C 200.800 208.220,201.160 208.400,201.600 208.400 C 202.040 208.400,202.400 208.580,202.400 208.800 C 202.400 209.020,202.760 209.200,203.200 209.200 C 203.640 209.200,204.000 209.380,204.000 209.600 C 204.000 209.820,204.360 210.000,204.800 210.000 C 205.240 210.000,205.600 210.180,205.600 210.400 C 205.600 210.620,205.888 210.800,206.240 210.800 C 206.591 210.800,207.383 211.340,208.000 212.000 C 208.617 212.660,209.274 213.201,209.460 213.202 C 209.955 213.205,212.190 215.373,213.483 217.104 C 214.097 217.926,214.903 218.936,215.274 219.347 C 216.237 220.415,218.800 225.588,218.800 226.463 C 218.800 226.868,218.980 227.200,219.200 227.200 C 219.420 227.200,219.606 227.785,219.613 228.500 C 219.639 231.204,220.424 231.469,232.200 232.759 C 236.080 233.185,245.279 234.438,250.233 235.217 C 251.571 235.428,253.508 235.600,254.538 235.600 C 255.568 235.600,256.766 235.821,257.199 236.092 C 257.852 236.500,258.107 236.465,258.683 235.888 C 259.465 235.107,261.466 237.273,240.032 215.700 C 229.840 205.441,228.419 204.350,227.400 206.000 C 227.264 206.220,226.724 206.400,226.200 206.400 C 225.676 206.400,225.136 206.580,225.000 206.800 C 224.864 207.020,223.593 207.200,222.176 207.200 C 220.725 207.200,219.600 207.375,219.600 207.600 C 219.600 207.820,218.700 208.000,217.600 208.000 C 216.500 208.000,215.600 207.858,215.600 207.684 C 215.600 207.511,214.478 207.324,213.106 207.270 C 211.734 207.216,210.438 206.998,210.226 206.786 C 210.014 206.574,209.437 206.400,208.944 206.400 C 208.451 206.400,207.936 206.220,207.800 206.000 C 207.664 205.780,207.238 205.600,206.853 205.600 C 205.972 205.600,201.366 203.298,199.627 201.988 C 197.195 200.156,192.800 195.873,192.800 195.334 C 192.800 195.040,192.641 194.800,192.446 194.800 C 192.251 194.800,191.796 194.178,191.435 193.417 C 191.074 192.656,190.615 191.933,190.415 191.809 C 189.935 191.513,188.800 189.222,188.800 188.551 C 188.800 188.261,188.440 187.383,188.000 186.600 C 187.560 185.817,187.200 184.652,187.200 184.011 C 187.200 183.371,187.020 182.736,186.800 182.600 C 186.246 182.258,186.287 171.415,186.849 169.628 C 187.096 168.843,187.456 167.887,187.649 167.505 C 187.842 167.123,188.000 166.544,188.000 166.218 C 188.000 165.891,188.360 164.983,188.800 164.200 C 189.240 163.417,189.600 162.511,189.600 162.188 C 189.600 161.865,189.738 161.600,189.906 161.600 C 190.074 161.600,190.511 160.925,190.877 160.100 C 191.243 159.275,192.006 158.113,192.571 157.517 C 193.137 156.922,193.600 156.298,193.600 156.131 C 193.600 155.648,197.323 152.000,197.815 152.000 C 198.060 152.000,198.683 151.550,199.200 151.000 C 199.717 150.450,200.272 150.000,200.434 150.000 C 200.596 150.000,201.999 149.280,203.552 148.400 C 205.105 147.520,206.831 146.800,207.388 146.800 C 207.944 146.800,208.400 146.620,208.400 146.400 C 208.400 146.180,209.120 146.000,210.000 146.000 C 210.880 146.000,211.600 145.820,211.600 145.600 C 211.600 145.351,213.867 145.200,217.600 145.200 C 221.333 145.200,223.600 145.351,223.600 145.600 C 223.600 145.820,224.320 146.000,225.200 146.000 C 226.080 146.000,226.800 146.180,226.800 146.400 C 226.800 146.620,227.256 146.800,227.812 146.800 C 228.369 146.800,230.095 147.520,231.648 148.400 C 233.201 149.280,234.604 150.000,234.766 150.000 C 234.928 150.000,235.483 150.450,236.000 151.000 C 236.517 151.550,237.127 152.000,237.356 152.000 C 237.839 152.000,241.600 155.617,241.600 156.082 C 241.600 157.726,246.167 159.348,247.000 158.000 C 247.136 157.780,247.867 157.600,248.624 157.600 C 249.381 157.600,250.000 157.420,250.000 157.200 C 250.000 156.980,250.619 156.800,251.376 156.800 C 252.133 156.800,252.864 156.620,253.000 156.400 C 253.136 156.180,253.856 156.000,254.600 156.000 C 255.344 156.000,256.064 155.820,256.200 155.600 C 256.336 155.380,256.979 155.200,257.629 155.200 C 258.279 155.200,259.123 155.038,259.505 154.839 C 259.887 154.640,260.920 154.295,261.800 154.072 C 262.680 153.849,264.210 153.456,265.200 153.200 C 266.190 152.944,267.630 152.582,268.400 152.396 C 269.170 152.210,271.690 151.593,274.000 151.026 C 276.310 150.458,278.594 149.995,279.076 149.997 C 279.558 149.999,280.064 149.820,280.200 149.600 C 280.336 149.380,280.979 149.200,281.629 149.200 C 282.279 149.200,283.123 149.032,283.505 148.827 C 283.887 148.621,285.019 148.232,286.021 147.963 C 287.981 147.435,288.800 146.368,288.800 144.344 C 288.800 143.741,288.980 143.136,289.200 143.000 C 289.420 142.864,289.599 142.448,289.597 142.076 C 289.593 141.335,292.639 135.062,293.600 133.832 C 293.930 133.409,294.605 132.669,295.100 132.186 C 295.595 131.703,296.000 131.188,296.000 131.041 C 296.000 130.642,298.717 128.000,299.127 128.000 C 299.322 128.000,300.003 127.505,300.641 126.900 C 301.935 125.672,308.225 122.392,309.276 122.397 C 309.648 122.399,310.064 122.220,310.200 122.000 C 310.336 121.780,310.876 121.600,311.400 121.600 C 311.924 121.600,312.464 121.420,312.600 121.200 C 312.748 120.961,315.396 120.800,319.200 120.800 C 323.004 120.800,325.652 120.961,325.800 121.200 M291.000 169.200 C 290.864 169.420,290.144 169.600,289.400 169.600 C 288.656 169.600,287.936 169.780,287.800 170.000 C 287.664 170.220,286.944 170.400,286.200 170.400 C 285.456 170.400,284.736 170.580,284.600 170.800 C 284.464 171.020,283.744 171.200,283.000 171.200 C 282.256 171.200,281.536 171.380,281.400 171.600 C 281.264 171.820,280.544 172.000,279.800 172.000 C 279.056 172.000,278.336 172.180,278.200 172.400 C 278.064 172.620,277.344 172.800,276.600 172.800 C 275.856 172.800,275.136 172.980,275.000 173.200 C 274.864 173.420,274.133 173.600,273.376 173.600 C 272.619 173.600,272.000 173.780,272.000 174.000 C 272.000 174.220,271.280 174.400,270.400 174.400 C 269.520 174.400,268.800 174.580,268.800 174.800 C 268.800 175.020,268.080 175.200,267.200 175.200 C 266.320 175.200,265.600 175.380,265.600 175.600 C 265.600 175.820,264.981 176.000,264.224 176.000 C 263.467 176.000,262.736 176.180,262.600 176.400 C 262.464 176.620,261.744 176.800,261.000 176.800 C 260.256 176.800,259.536 176.980,259.400 177.200 C 259.264 177.420,258.544 177.600,257.800 177.600 C 257.056 177.600,256.336 177.780,256.200 178.000 C 256.064 178.220,255.344 178.400,254.600 178.400 C 253.856 178.400,253.136 178.580,253.000 178.800 C 252.864 179.020,252.178 179.206,251.476 179.213 C 249.949 179.228,248.807 180.005,248.782 181.044 C 248.758 182.083,247.837 185.497,247.486 185.847 C 247.329 186.005,247.200 186.446,247.200 186.829 C 247.200 187.211,246.803 188.269,246.317 189.179 L 245.434 190.833 260.258 205.657 L 275.083 220.481 276.241 219.897 C 277.868 219.078,284.765 217.436,286.157 217.537 C 287.711 217.650,288.800 216.590,288.800 214.962 C 288.800 214.239,288.980 213.536,289.200 213.400 C 289.420 213.264,289.600 212.724,289.600 212.200 C 289.600 211.676,289.780 211.136,290.000 211.000 C 290.220 210.864,290.400 210.324,290.400 209.800 C 290.400 209.276,290.580 208.736,290.800 208.600 C 291.020 208.464,291.200 207.924,291.200 207.400 C 291.200 206.876,291.380 206.336,291.600 206.200 C 291.820 206.064,292.000 205.333,292.000 204.576 C 292.000 203.819,292.180 203.200,292.400 203.200 C 292.620 203.200,292.800 202.660,292.800 202.000 C 292.800 201.340,292.980 200.800,293.200 200.800 C 293.420 200.800,293.600 200.260,293.600 199.600 C 293.600 198.940,293.780 198.400,294.000 198.400 C 294.220 198.400,294.400 197.781,294.400 197.024 C 294.400 196.267,294.580 195.536,294.800 195.400 C 295.020 195.264,295.200 194.724,295.200 194.200 C 295.200 193.676,295.380 193.136,295.600 193.000 C 295.820 192.864,296.000 192.324,296.000 191.800 C 296.000 191.276,296.180 190.736,296.400 190.600 C 296.620 190.464,296.800 189.744,296.800 189.000 C 296.800 188.256,296.980 187.536,297.200 187.400 C 297.420 187.264,297.600 186.724,297.600 186.200 C 297.600 185.676,297.780 185.136,298.000 185.000 C 298.220 184.864,298.400 184.401,298.400 183.971 C 298.400 183.541,298.562 182.877,298.761 182.495 C 300.040 180.034,300.460 176.000,299.437 176.000 C 298.774 176.000,295.200 172.627,295.200 172.002 C 295.200 170.638,291.597 168.235,291.000 169.200 " stroke="none" fill="#a4c4ec" fill-rule="evenodd"></path><path id="path1" d="M314.400 121.450 C 310.341 122.208,302.724 125.493,300.777 127.326 C 300.215 127.856,299.357 128.502,298.872 128.761 C 296.049 130.272,290.683 139.292,289.384 144.712 C 289.000 146.313,288.555 147.704,288.395 147.803 C 288.035 148.026,284.387 149.029,280.400 150.003 C 278.750 150.406,276.230 151.034,274.800 151.398 C 269.723 152.692,259.779 155.260,258.400 155.633 C 257.630 155.841,256.280 156.172,255.400 156.369 C 254.520 156.566,252.090 157.170,250.000 157.712 C 243.237 159.467,243.582 159.484,241.911 157.302 C 229.940 141.671,205.326 141.672,193.363 157.304 C 192.394 158.572,191.600 159.772,191.600 159.971 C 191.600 160.170,191.458 160.393,191.285 160.467 C 189.859 161.071,187.240 169.365,186.922 174.282 C 185.532 195.815,205.771 211.876,226.600 205.769 L 229.800 204.830 244.688 219.715 C 252.877 227.902,259.582 234.893,259.588 235.251 C 259.615 236.712,258.667 236.885,254.126 236.251 C 251.747 235.918,247.010 235.269,243.600 234.808 C 240.190 234.347,236.320 233.808,235.000 233.608 C 233.680 233.409,230.890 233.047,228.800 232.803 C 219.958 231.772,220.148 231.866,218.816 227.800 C 210.244 201.625,174.436 198.854,161.954 223.400 C 157.801 231.566,157.695 243.343,161.706 250.856 C 173.064 272.132,202.539 274.059,215.073 254.346 L 216.600 251.944 218.800 252.149 C 220.010 252.261,222.260 252.528,223.800 252.743 C 225.340 252.957,228.760 253.413,231.400 253.756 C 234.040 254.099,237.505 254.564,239.100 254.790 C 240.695 255.015,243.305 255.372,244.900 255.583 C 249.892 256.242,254.165 256.850,255.082 257.032 C 255.740 257.162,256.031 257.588,256.224 258.703 C 256.366 259.526,256.736 260.975,257.044 261.922 C 257.629 263.717,257.376 264.832,256.234 265.483 C 255.705 265.785,250.287 270.519,244.313 275.900 C 242.786 277.275,241.326 278.399,241.068 278.398 C 240.811 278.396,239.521 278.219,238.203 278.003 C 226.759 276.129,215.476 287.439,217.257 299.000 C 218.539 307.318,224.432 313.450,232.658 315.024 C 235.691 315.604,236.671 315.567,240.600 314.722 C 243.718 314.051,250.000 310.341,250.000 309.171 C 250.000 308.948,250.383 308.369,250.850 307.883 C 253.092 305.554,255.194 298.552,254.611 295.355 C 254.408 294.239,254.582 293.949,256.292 292.567 C 257.341 291.719,259.100 290.188,260.200 289.165 C 261.300 288.142,262.920 286.701,263.800 285.962 C 264.680 285.224,266.445 283.670,267.723 282.510 C 270.408 280.071,270.344 280.087,272.322 281.396 C 276.792 284.354,286.424 286.746,291.574 286.177 L 293.800 285.931 300.721 299.808 C 306.751 311.901,307.574 313.776,307.121 314.392 C 299.441 324.820,297.672 333.899,301.139 345.090 C 303.283 352.012,310.775 360.266,317.200 362.785 C 317.970 363.087,318.780 363.468,319.000 363.631 C 320.786 364.958,329.412 366.101,333.640 365.571 C 359.216 362.364,370.153 332.085,352.457 313.478 C 346.735 307.460,339.998 304.555,330.770 304.125 L 325.740 303.891 319.270 290.944 C 311.831 276.057,312.303 277.638,314.580 275.260 C 316.778 272.964,318.774 270.350,318.789 269.749 C 318.795 269.501,319.049 269.091,319.353 268.839 C 319.960 268.335,322.103 263.140,322.751 260.600 C 326.198 247.100,321.512 233.746,310.050 224.400 L 308.333 223.000 309.814 218.200 C 310.629 215.560,311.621 212.230,312.018 210.800 C 312.415 209.370,313.308 206.400,314.002 204.200 C 314.696 202.000,315.785 198.490,316.422 196.400 C 319.763 185.436,320.546 183.124,320.954 183.023 C 321.199 182.962,323.020 182.604,325.000 182.228 C 352.035 177.096,359.227 143.311,336.865 126.495 C 331.880 122.746,320.794 120.257,314.400 121.450 M294.400 170.163 C 295.170 171.130,296.154 172.408,296.586 173.001 C 297.018 173.594,298.160 174.622,299.122 175.284 C 301.140 176.672,301.142 176.730,299.359 182.207 C 298.788 183.963,298.158 185.985,297.960 186.700 C 297.762 187.415,297.437 188.585,297.237 189.300 C 297.037 190.015,295.760 194.200,294.400 198.600 C 293.040 203.000,291.780 207.140,291.601 207.800 C 288.968 217.517,288.831 217.722,284.556 218.308 C 282.772 218.553,279.811 219.250,277.976 219.856 L 274.639 220.959 259.922 205.980 C 245.978 191.786,244.687 190.294,245.565 189.380 C 246.144 188.777,248.000 182.898,248.000 181.668 C 248.000 179.489,248.078 179.461,270.200 173.852 C 294.925 167.582,292.626 167.933,294.400 170.163 " stroke="none" fill="#0b0a04" fill-rule="evenodd"></path><path id="path2" d="M318.991 121.100 C 322.505 121.167,325.556 121.396,325.771 121.611 C 325.985 121.825,326.718 122.000,327.400 122.000 C 328.082 122.000,328.837 122.197,329.078 122.438 C 329.318 122.678,329.849 122.789,330.258 122.684 C 330.883 122.523,330.862 122.486,330.124 122.446 C 329.642 122.421,329.136 122.220,329.000 122.000 C 328.864 121.780,328.144 121.600,327.400 121.600 C 326.656 121.600,325.936 121.420,325.800 121.200 C 325.648 120.954,323.061 120.834,319.076 120.889 L 312.600 120.978 318.991 121.100 M310.200 122.000 C 310.064 122.220,309.639 122.400,309.255 122.400 C 308.581 122.400,304.400 124.315,304.400 124.623 C 304.400 124.847,305.621 124.354,307.112 123.527 C 307.834 123.127,308.743 122.800,309.132 122.800 C 309.521 122.800,310.011 122.635,310.220 122.434 C 310.429 122.232,311.050 121.987,311.600 121.888 C 312.599 121.709,312.599 121.709,311.524 121.654 C 310.932 121.625,310.336 121.780,310.200 122.000 M302.400 125.433 C 301.842 125.743,301.665 125.985,302.000 125.981 C 302.330 125.978,302.949 125.710,303.376 125.387 C 304.339 124.659,303.745 124.687,302.400 125.433 M291.300 137.953 C 290.365 139.855,289.600 141.688,289.600 142.026 C 289.600 142.364,289.407 142.833,289.171 143.069 C 288.935 143.305,288.816 144.106,288.907 144.849 L 289.072 146.200 289.136 144.724 C 289.171 143.912,289.380 143.136,289.600 143.000 C 289.820 142.864,290.000 142.428,290.000 142.032 C 290.000 141.635,290.724 139.903,291.609 138.182 C 292.494 136.462,293.169 134.928,293.109 134.774 C 293.049 134.620,292.235 136.051,291.300 137.953 M346.802 137.039 C 346.800 137.537,347.976 140.000,348.217 140.000 C 348.412 140.000,348.013 138.928,347.324 137.600 C 347.038 137.050,346.804 136.797,346.802 137.039 M348.432 141.076 C 348.414 141.558,348.580 142.064,348.800 142.200 C 349.020 142.336,349.200 142.876,349.200 143.400 C 349.200 143.924,349.363 144.454,349.563 144.577 C 349.951 144.817,349.750 143.514,349.196 142.200 C 349.010 141.760,348.770 141.130,348.661 140.800 C 348.536 140.421,348.452 140.523,348.432 141.076 M350.120 148.000 C 350.120 149.210,350.195 149.705,350.287 149.100 C 350.378 148.495,350.378 147.505,350.287 146.900 C 350.195 146.295,350.120 146.790,350.120 148.000 M195.385 154.100 L 193.400 156.200 195.400 154.348 C 196.500 153.329,197.670 152.398,198.000 152.279 C 198.523 152.091,198.521 152.059,197.985 152.032 C 197.647 152.014,196.477 152.945,195.385 154.100 M237.200 152.279 C 237.530 152.398,238.700 153.329,239.800 154.348 L 241.800 156.200 239.815 154.100 C 238.723 152.945,237.553 152.014,237.215 152.032 C 236.679 152.059,236.677 152.091,237.200 152.279 M266.100 153.076 C 266.485 153.176,267.115 153.176,267.500 153.076 C 267.885 152.975,267.570 152.893,266.800 152.893 C 266.030 152.893,265.715 152.975,266.100 153.076 M262.900 153.876 C 263.285 153.976,263.915 153.976,264.300 153.876 C 264.685 153.775,264.370 153.693,263.600 153.693 C 262.830 153.693,262.515 153.775,262.900 153.876 M260.800 154.288 C 260.250 154.387,259.629 154.632,259.420 154.834 C 259.211 155.035,258.457 155.200,257.744 155.200 C 257.031 155.200,256.336 155.380,256.200 155.600 C 256.064 155.820,255.369 156.000,254.656 156.000 C 253.943 156.000,253.189 156.167,252.980 156.371 C 252.771 156.576,251.970 156.817,251.200 156.907 L 249.800 157.072 251.276 157.136 C 252.088 157.171,252.864 157.020,253.000 156.800 C 253.136 156.580,253.856 156.400,254.600 156.400 C 255.344 156.400,256.064 156.220,256.200 156.000 C 256.336 155.780,257.056 155.600,257.800 155.600 C 258.544 155.600,259.264 155.420,259.400 155.200 C 259.536 154.980,260.076 154.800,260.600 154.800 C 261.124 154.800,261.664 154.620,261.800 154.400 C 261.936 154.180,261.992 154.025,261.924 154.054 C 261.856 154.084,261.350 154.190,260.800 154.288 M192.191 157.922 C 191.747 158.515,191.117 159.540,190.792 160.200 C 190.467 160.860,190.044 161.514,189.852 161.654 C 189.660 161.793,189.576 162.128,189.666 162.398 C 189.756 162.667,190.262 162.013,190.792 160.944 C 191.321 159.875,192.203 158.505,192.752 157.900 C 193.301 157.295,193.581 156.810,193.375 156.822 C 193.169 156.834,192.636 157.329,192.191 157.922 M242.400 157.800 C 243.099 158.544,243.706 158.783,244.770 158.733 L 246.200 158.666 244.688 158.508 C 243.749 158.410,242.992 158.056,242.692 157.575 C 242.425 157.149,242.039 156.800,241.834 156.800 C 241.629 156.800,241.883 157.250,242.400 157.800 M247.700 157.876 C 248.085 157.976,248.715 157.976,249.100 157.876 C 249.485 157.775,249.170 157.693,248.400 157.693 C 247.630 157.693,247.315 157.775,247.700 157.876 M349.467 159.467 C 349.320 159.613,349.200 160.143,349.200 160.643 C 349.200 161.143,349.020 161.664,348.800 161.800 C 348.580 161.936,348.414 162.442,348.432 162.924 C 348.452 163.477,348.536 163.579,348.661 163.200 C 348.770 162.870,349.010 162.240,349.196 161.800 C 349.562 160.931,349.984 159.200,349.829 159.200 C 349.776 159.200,349.613 159.320,349.467 159.467 M347.429 165.261 C 347.083 165.955,346.801 166.720,346.802 166.961 C 346.805 167.403,347.614 166.002,348.109 164.700 C 348.549 163.543,348.103 163.911,347.429 165.261 M186.561 176.400 C 186.561 179.810,186.622 181.205,186.697 179.500 C 186.772 177.795,186.772 175.005,186.697 173.300 C 186.622 171.595,186.561 172.990,186.561 176.400 M266.900 175.076 C 267.285 175.176,267.915 175.176,268.300 175.076 C 268.685 174.975,268.370 174.893,267.600 174.893 C 266.830 174.893,266.515 174.975,266.900 175.076 M263.700 175.876 C 264.085 175.976,264.715 175.976,265.100 175.876 C 265.485 175.775,265.170 175.693,264.400 175.693 C 263.630 175.693,263.315 175.775,263.700 175.876 M261.400 176.400 L 260.200 176.705 261.276 176.753 C 261.868 176.779,262.464 176.620,262.600 176.400 C 262.736 176.180,262.792 176.021,262.724 176.047 C 262.656 176.073,262.060 176.232,261.400 176.400 M257.800 177.200 L 256.200 177.486 257.676 177.543 C 258.488 177.574,259.264 177.420,259.400 177.200 C 259.536 176.980,259.592 176.826,259.524 176.857 C 259.456 176.888,258.680 177.042,257.800 177.200 M254.100 178.276 C 254.485 178.376,255.115 178.376,255.500 178.276 C 255.885 178.175,255.570 178.093,254.800 178.093 C 254.030 178.093,253.715 178.175,254.100 178.276 M250.900 179.076 C 251.285 179.176,251.915 179.176,252.300 179.076 C 252.685 178.975,252.370 178.893,251.600 178.893 C 250.830 178.893,250.515 178.975,250.900 179.076 M248.556 180.171 C 248.435 180.485,248.416 181.160,248.514 181.671 C 248.652 182.397,248.703 182.323,248.746 181.333 C 248.775 180.637,249.025 179.976,249.300 179.865 C 249.692 179.707,249.689 179.656,249.287 179.632 C 249.006 179.614,248.676 179.857,248.556 180.171 M325.800 182.400 C 325.664 182.620,324.595 182.800,323.425 182.800 C 321.868 182.800,321.156 182.987,320.768 183.500 C 320.318 184.096,320.322 184.125,320.799 183.700 C 321.108 183.425,322.278 183.200,323.400 183.200 C 324.522 183.200,325.611 183.034,325.820 182.831 C 326.029 182.628,326.740 182.385,327.400 182.291 L 328.600 182.120 327.324 182.060 C 326.622 182.027,325.936 182.180,325.800 182.400 M187.293 184.400 C 187.293 185.170,187.375 185.485,187.476 185.100 C 187.576 184.715,187.576 184.085,187.476 183.700 C 187.375 183.315,187.293 183.630,187.293 184.400 M246.846 186.662 C 246.821 187.136,246.403 188.269,245.917 189.179 L 245.034 190.833 260.016 205.716 L 274.999 220.600 260.225 205.723 L 245.450 190.846 246.364 189.071 C 246.866 188.094,247.191 186.959,247.085 186.547 C 246.919 185.902,246.886 185.918,246.846 186.662 M188.846 188.239 C 188.797 189.132,189.808 191.434,190.415 191.809 C 190.615 191.933,191.074 192.656,191.435 193.417 C 191.796 194.178,192.279 194.800,192.508 194.800 C 192.737 194.800,192.626 194.471,192.262 194.069 C 191.898 193.666,191.600 193.148,191.600 192.917 C 191.600 192.687,191.327 192.271,190.993 191.994 C 190.349 191.460,189.375 189.534,189.074 188.200 C 188.900 187.434,188.891 187.435,188.846 188.239 M192.800 195.445 C 192.800 195.653,194.015 196.988,195.500 198.412 L 198.200 201.000 195.600 198.210 C 194.170 196.676,192.955 195.341,192.900 195.244 C 192.845 195.146,192.800 195.237,192.800 195.445 M184.500 206.291 C 185.325 206.378,186.675 206.378,187.500 206.291 C 188.325 206.205,187.650 206.134,186.000 206.134 C 184.350 206.134,183.675 206.205,184.500 206.291 M192.800 206.297 C 194.010 206.379,195.171 206.616,195.380 206.823 C 195.589 207.030,196.318 207.200,197.000 207.200 C 197.682 207.200,198.435 207.395,198.674 207.634 C 198.912 207.872,199.533 207.987,200.054 207.888 C 200.940 207.720,200.932 207.705,199.924 207.654 C 199.332 207.625,198.736 207.420,198.600 207.200 C 198.464 206.980,197.744 206.800,197.000 206.800 C 196.256 206.800,195.536 206.620,195.400 206.400 C 195.264 206.180,194.128 206.033,192.876 206.074 L 190.600 206.148 192.800 206.297 M291.467 206.267 C 291.320 206.413,291.200 206.943,291.200 207.443 C 291.200 207.943,291.020 208.464,290.800 208.600 C 290.580 208.736,290.400 209.276,290.400 209.800 C 290.400 210.324,290.220 210.864,290.000 211.000 C 289.780 211.136,289.600 211.651,289.600 212.144 C 289.600 212.637,289.407 213.233,289.171 213.469 C 288.935 213.705,288.816 214.506,288.907 215.249 L 289.072 216.600 289.136 215.124 C 289.171 214.312,289.380 213.536,289.600 213.400 C 289.820 213.264,290.000 212.724,290.000 212.200 C 290.000 211.676,290.180 211.136,290.400 211.000 C 290.620 210.864,290.800 210.324,290.800 209.800 C 290.800 209.276,290.959 208.749,291.154 208.629 C 291.349 208.508,291.587 207.868,291.685 207.205 C 291.876 205.903,291.867 205.866,291.467 206.267 M313.254 207.276 C 313.225 207.868,313.020 208.464,312.800 208.600 C 312.580 208.736,312.400 209.456,312.400 210.200 C 312.400 210.944,312.220 211.664,312.000 211.800 C 311.780 211.936,311.600 212.476,311.600 213.000 C 311.600 213.524,311.420 214.064,311.200 214.200 C 310.980 214.336,310.800 214.851,310.800 215.344 C 310.800 215.837,310.607 216.433,310.371 216.669 C 310.135 216.905,310.016 217.706,310.107 218.449 L 310.272 219.800 310.336 218.324 C 310.371 217.512,310.580 216.736,310.800 216.600 C 311.020 216.464,311.200 215.924,311.200 215.400 C 311.200 214.876,311.380 214.336,311.600 214.200 C 311.820 214.064,312.000 213.524,312.000 213.000 C 312.000 212.476,312.180 211.936,312.400 211.800 C 312.620 211.664,312.800 210.969,312.800 210.256 C 312.800 209.543,312.995 208.765,313.234 208.526 C 313.472 208.288,313.587 207.667,313.488 207.146 C 313.320 206.260,313.305 206.268,313.254 207.276 M167.200 215.000 C 166.228 215.990,165.523 216.800,165.633 216.800 C 165.743 216.800,166.628 215.990,167.600 215.000 C 168.572 214.010,169.277 213.200,169.167 213.200 C 169.057 213.200,168.172 214.010,167.200 215.000 M215.600 220.072 C 215.600 220.506,216.869 222.796,217.235 223.022 C 217.447 223.152,217.236 222.571,216.767 221.730 C 215.867 220.115,215.600 219.736,215.600 220.072 M308.962 223.500 C 309.381 223.995,309.917 224.400,310.154 224.400 C 310.390 224.400,312.117 225.885,313.992 227.700 L 317.400 231.000 314.009 227.500 C 312.144 225.575,310.448 224.000,310.240 224.000 C 310.033 224.000,309.489 223.685,309.031 223.300 C 308.201 222.601,308.201 222.601,308.962 223.500 M254.592 230.296 C 259.092 234.898,259.339 235.233,258.702 235.870 C 258.150 236.421,257.853 236.462,257.112 236.091 C 256.084 235.575,251.172 235.236,251.461 235.700 C 251.563 235.865,252.719 236.000,254.029 236.000 C 255.339 236.000,256.766 236.222,257.201 236.493 C 257.872 236.912,258.126 236.851,258.889 236.089 L 259.787 235.191 254.796 230.295 L 249.804 225.400 254.592 230.296 M159.293 228.800 C 159.293 229.570,159.375 229.885,159.476 229.500 C 159.576 229.115,159.576 228.485,159.476 228.100 C 159.375 227.715,159.293 228.030,159.293 228.800 M158.520 232.800 C 158.520 234.010,158.595 234.505,158.687 233.900 C 158.778 233.295,158.778 232.305,158.687 231.700 C 158.595 231.095,158.520 231.590,158.520 232.800 M234.366 233.326 C 234.547 233.507,235.393 233.593,236.247 233.519 L 237.800 233.383 235.919 233.190 C 234.884 233.084,234.185 233.145,234.366 233.326 M239.966 234.126 C 240.147 234.307,240.993 234.393,241.847 234.319 L 243.400 234.183 241.519 233.990 C 240.484 233.884,239.785 233.945,239.966 234.126 M245.565 234.926 C 245.744 235.105,246.681 235.191,247.646 235.118 L 249.400 234.985 247.319 234.793 C 246.175 234.687,245.385 234.747,245.565 234.926 M158.400 242.176 C 158.400 242.933,158.538 243.638,158.707 243.743 C 158.876 243.847,158.948 243.228,158.865 242.366 C 158.681 240.432,158.400 240.318,158.400 242.176 M215.632 253.638 C 215.614 253.989,215.240 254.602,214.800 255.000 C 214.360 255.398,214.000 255.926,214.000 256.174 C 214.000 256.713,209.253 261.416,208.400 261.722 C 207.874 261.910,207.875 261.941,208.411 261.968 C 209.045 262.001,214.400 256.857,214.400 256.216 C 214.400 256.015,214.779 255.448,215.243 254.954 C 215.706 254.461,215.991 253.819,215.874 253.529 C 215.724 253.152,215.654 253.183,215.632 253.638 M255.202 257.676 C 255.201 258.048,255.380 258.464,255.600 258.600 C 255.820 258.736,256.000 259.431,256.000 260.144 C 256.000 260.857,256.166 261.611,256.369 261.820 C 256.572 262.029,256.815 262.740,256.909 263.400 L 257.080 264.600 257.140 263.324 C 257.173 262.622,257.020 261.936,256.800 261.800 C 256.580 261.664,256.400 261.044,256.400 260.422 C 256.400 259.800,256.131 258.776,255.802 258.146 C 255.424 257.421,255.204 257.248,255.202 257.676 M170.000 261.882 C 170.330 262.003,171.050 262.484,171.600 262.951 L 172.600 263.800 171.630 262.700 C 171.097 262.095,170.377 261.614,170.030 261.632 C 169.491 261.659,169.486 261.695,170.000 261.882 M203.200 265.038 C 202.210 265.563,201.620 265.994,201.888 265.996 C 202.308 265.999,205.084 264.612,205.567 264.157 C 206.012 263.737,204.812 264.184,203.200 265.038 M175.411 265.334 C 176.296 265.932,177.600 266.458,177.600 266.217 C 177.600 266.037,175.198 264.800,174.850 264.800 C 174.724 264.800,174.977 265.040,175.411 265.334 M180.800 267.355 C 180.800 267.440,181.330 267.587,181.979 267.682 C 182.627 267.777,183.067 267.708,182.955 267.528 C 182.757 267.207,180.800 267.050,180.800 267.355 M191.452 268.316 C 191.344 268.490,191.918 268.567,192.728 268.487 C 194.942 268.269,195.205 268.067,193.324 268.032 C 192.402 268.014,191.559 268.142,191.452 268.316 M315.085 275.114 C 314.048 276.166,313.200 277.309,313.200 277.652 C 313.200 278.259,314.324 280.800,314.592 280.800 C 314.859 280.800,314.293 279.181,313.952 278.970 C 313.108 278.448,313.721 276.904,315.485 275.114 C 316.522 274.061,317.280 273.200,317.170 273.200 C 317.060 273.200,316.122 274.061,315.085 275.114 M216.780 293.890 C 216.671 294.819,216.733 295.427,216.920 295.240 C 217.106 295.054,217.196 294.294,217.119 293.551 C 216.983 292.233,216.975 292.242,216.780 293.890 M216.901 299.400 C 216.905 300.280,216.987 300.593,217.083 300.095 C 217.179 299.598,217.175 298.878,217.075 298.495 C 216.975 298.113,216.896 298.520,216.901 299.400 M325.728 303.000 C 325.805 303.752,326.110 303.801,330.805 303.818 L 335.800 303.836 330.927 303.706 C 326.732 303.595,326.026 303.481,325.850 302.888 C 325.697 302.372,325.666 302.400,325.728 303.000 M218.109 303.900 C 218.195 304.065,218.562 304.850,218.925 305.645 C 219.288 306.440,219.859 307.317,220.193 307.594 C 220.527 307.871,220.800 308.309,220.800 308.568 C 220.800 309.153,223.677 312.000,224.268 312.000 C 224.507 312.000,224.929 312.273,225.206 312.607 C 225.483 312.941,226.360 313.512,227.155 313.875 C 227.950 314.238,228.735 314.605,228.900 314.691 C 229.065 314.777,229.200 314.751,229.200 314.634 C 229.200 314.516,228.419 314.064,227.465 313.630 C 226.511 313.195,225.499 312.561,225.216 312.220 C 224.934 311.879,224.489 311.600,224.229 311.600 C 223.645 311.600,221.200 309.122,221.200 308.530 C 221.200 308.292,220.921 307.866,220.580 307.584 C 220.239 307.301,219.605 306.289,219.170 305.335 C 218.736 304.381,218.284 303.600,218.166 303.600 C 218.049 303.600,218.023 303.735,218.109 303.900 M338.561 304.687 C 338.979 304.795,339.930 305.224,340.673 305.641 C 341.416 306.058,342.291 306.400,342.618 306.400 C 343.256 306.400,344.520 307.037,345.793 308.000 C 346.526 308.554,346.545 308.547,346.051 307.908 C 345.456 307.139,343.366 306.000,342.551 306.000 C 342.261 306.000,341.383 305.640,340.600 305.200 C 339.817 304.760,338.866 304.421,338.488 304.446 C 337.911 304.485,337.923 304.524,338.561 304.687 M251.004 307.996 C 250.374 308.654,249.935 309.256,250.029 309.334 C 250.123 309.412,250.713 308.874,251.339 308.138 C 252.754 306.477,252.545 306.388,251.004 307.996 M304.290 308.300 C 304.436 308.685,305.061 309.963,305.678 311.141 C 306.295 312.318,306.814 313.578,306.832 313.941 C 306.853 314.382,306.932 314.429,307.071 314.083 C 307.254 313.625,304.565 307.600,304.178 307.600 C 304.094 307.600,304.144 307.915,304.290 308.300 M349.244 310.100 C 349.341 310.155,350.676 311.370,352.210 312.800 L 355.000 315.400 352.412 312.700 C 350.988 311.215,349.653 310.000,349.445 310.000 C 349.237 310.000,349.146 310.045,349.244 310.100 M247.170 311.834 C 246.636 312.403,245.435 313.218,244.500 313.644 C 243.565 314.071,242.800 314.516,242.800 314.634 C 242.800 314.751,242.935 314.777,243.100 314.691 C 243.265 314.605,244.039 314.243,244.821 313.886 C 245.603 313.529,246.593 312.848,247.021 312.371 C 247.449 311.895,248.160 311.358,248.600 311.178 C 249.175 310.943,249.223 310.844,248.770 310.825 C 248.423 310.811,247.703 311.265,247.170 311.834 M230.100 315.076 C 230.485 315.176,231.115 315.176,231.500 315.076 C 231.885 314.975,231.570 314.893,230.800 314.893 C 230.030 314.893,229.715 314.975,230.100 315.076 M239.800 315.200 C 239.664 315.420,237.898 315.637,235.876 315.681 L 232.200 315.763 235.593 315.899 C 237.460 315.974,239.350 315.855,239.793 315.634 C 240.237 315.414,241.050 315.160,241.600 315.071 C 242.430 314.936,242.384 314.900,241.324 314.854 C 240.622 314.825,239.936 314.980,239.800 315.200 M354.800 316.125 C 354.800 316.194,355.385 316.779,356.100 317.425 L 357.400 318.600 356.225 317.300 C 355.130 316.088,354.800 315.816,354.800 316.125 M358.286 321.606 C 358.402 322.050,358.655 322.510,358.848 322.630 C 359.042 322.749,359.214 323.242,359.232 323.724 C 359.249 324.206,359.356 324.368,359.470 324.085 C 359.584 323.802,359.381 322.947,359.020 322.185 C 358.285 320.638,357.967 320.386,358.286 321.606 M360.794 329.519 L 360.987 331.800 361.118 329.844 C 361.190 328.769,361.103 327.742,360.924 327.563 C 360.746 327.384,360.687 328.264,360.794 329.519 M361.734 335.200 C 361.734 336.850,361.805 337.525,361.891 336.700 C 361.978 335.875,361.978 334.525,361.891 333.700 C 361.805 332.875,361.734 333.550,361.734 335.200 M360.790 340.481 C 360.684 341.516,360.745 342.215,360.926 342.034 C 361.107 341.853,361.193 341.007,361.119 340.153 L 360.983 338.600 360.790 340.481 M352.386 356.700 L 350.200 359.000 352.500 356.814 C 354.637 354.782,354.983 354.400,354.686 354.400 C 354.624 354.400,353.589 355.435,352.386 356.700 M347.420 360.767 C 347.142 361.218,341.567 364.000,340.942 364.000 C 340.694 364.000,339.976 364.269,339.346 364.598 C 338.621 364.976,338.448 365.196,338.876 365.198 C 339.248 365.199,339.664 365.020,339.800 364.800 C 339.936 364.580,340.350 364.400,340.720 364.400 C 341.606 364.400,346.995 361.728,347.615 360.982 C 347.881 360.662,347.997 360.400,347.873 360.400 C 347.749 360.400,347.545 360.565,347.420 360.767 M320.800 364.956 C 320.800 365.042,321.417 365.185,322.172 365.273 C 322.927 365.361,323.456 365.290,323.348 365.116 C 323.155 364.803,320.800 364.655,320.800 364.956 M324.600 365.838 C 326.474 366.139,329.109 366.177,328.938 365.900 C 328.836 365.735,327.638 365.625,326.276 365.654 C 324.914 365.684,324.160 365.767,324.600 365.838 M333.507 365.890 C 334.226 365.979,335.306 365.977,335.907 365.886 C 336.508 365.795,335.920 365.722,334.600 365.724 C 333.280 365.726,332.788 365.801,333.507 365.890 " stroke="none" fill="#54c8b0" fill-rule="evenodd"></path><path id="path3" d="M312.400 121.520 C 312.400 121.696,313.030 121.766,313.800 121.676 C 314.570 121.586,315.200 121.442,315.200 121.356 C 315.200 121.270,314.570 121.200,313.800 121.200 C 313.030 121.200,312.400 121.344,312.400 121.520 M323.600 121.355 C 323.600 121.440,324.130 121.587,324.779 121.682 C 325.427 121.777,325.867 121.708,325.755 121.528 C 325.557 121.207,323.600 121.050,323.600 121.355 M335.233 125.300 C 335.325 125.355,335.940 125.850,336.600 126.400 L 337.800 127.400 336.830 126.300 C 336.297 125.695,335.682 125.200,335.464 125.200 C 335.245 125.200,335.142 125.245,335.233 125.300 M341.186 130.314 C 342.844 132.027,344.280 133.372,344.378 133.303 C 344.581 133.159,338.740 127.200,338.396 127.200 C 338.273 127.200,339.528 128.601,341.186 130.314 M297.481 129.517 C 296.667 130.351,296.000 131.185,296.000 131.371 C 296.000 131.556,296.389 131.213,296.865 130.609 C 297.340 130.004,298.285 129.171,298.965 128.756 C 299.646 128.341,299.923 128.002,299.581 128.001 C 299.241 128.001,298.296 128.683,297.481 129.517 M294.415 132.961 C 294.214 133.490,293.858 134.040,293.625 134.185 C 293.391 134.329,293.200 134.641,293.200 134.879 C 293.200 135.116,293.740 134.631,294.400 133.800 C 295.726 132.131,295.784 132.000,295.190 132.000 C 294.965 132.000,294.616 132.433,294.415 132.961 M349.552 145.687 C 349.737 146.798,349.793 146.855,349.919 146.054 C 350.001 145.533,349.903 144.943,349.701 144.741 C 349.479 144.519,349.421 144.893,349.552 145.687 M211.862 145.500 C 211.760 145.665,214.342 145.800,217.600 145.800 C 220.858 145.800,223.440 145.665,223.338 145.500 C 223.236 145.335,220.654 145.200,217.600 145.200 C 214.546 145.200,211.964 145.335,211.862 145.500 M208.590 146.416 C 208.421 146.689,208.723 146.738,209.466 146.560 C 210.999 146.192,211.144 146.000,209.890 146.000 C 209.317 146.000,208.732 146.187,208.590 146.416 M224.400 146.155 C 224.400 146.240,224.930 146.387,225.579 146.482 C 226.227 146.577,226.667 146.508,226.555 146.328 C 226.357 146.007,224.400 145.850,224.400 146.155 M288.400 146.800 C 288.400 147.293,288.131 147.602,287.700 147.606 C 286.918 147.613,284.147 148.520,283.776 148.890 C 283.487 149.180,286.307 148.568,287.695 148.040 C 288.644 147.679,289.523 146.000,288.763 146.000 C 288.563 146.000,288.400 146.360,288.400 146.800 M205.376 147.387 C 204.373 148.147,205.137 148.161,206.854 147.416 C 208.114 146.869,208.135 146.830,207.176 146.816 C 206.614 146.807,205.804 147.064,205.376 147.387 M228.346 147.416 C 230.063 148.161,230.827 148.147,229.824 147.387 C 229.396 147.064,228.586 146.807,228.024 146.816 C 227.065 146.830,227.086 146.869,228.346 147.416 M280.604 149.594 C 280.452 149.840,280.855 149.894,281.680 149.737 C 283.449 149.400,283.601 149.200,282.090 149.200 C 281.407 149.200,280.738 149.377,280.604 149.594 M199.640 150.900 L 199.087 151.800 200.043 151.004 C 200.570 150.567,201.075 150.162,201.167 150.104 C 201.258 150.047,201.077 150.000,200.763 150.000 C 200.449 150.000,199.944 150.405,199.640 150.900 M234.033 150.104 C 234.125 150.162,234.630 150.567,235.157 151.004 L 236.113 151.800 235.560 150.900 C 235.256 150.405,234.751 150.000,234.437 150.000 C 234.123 150.000,233.942 150.047,234.033 150.104 M277.445 150.328 C 277.333 150.508,277.773 150.577,278.421 150.482 C 279.070 150.387,279.600 150.240,279.600 150.155 C 279.600 149.850,277.643 150.007,277.445 150.328 M350.200 151.962 C 350.200 153.041,350.335 153.840,350.500 153.738 C 350.665 153.636,350.800 152.753,350.800 151.776 C 350.800 150.799,350.665 150.000,350.500 150.000 C 350.335 150.000,350.200 150.883,350.200 151.962 M274.204 151.194 C 274.052 151.440,274.455 151.494,275.280 151.337 C 277.049 151.000,277.201 150.800,275.690 150.800 C 275.007 150.800,274.338 150.977,274.204 151.194 M271.052 151.916 C 270.944 152.090,271.473 152.161,272.228 152.073 C 272.983 151.985,273.600 151.842,273.600 151.756 C 273.600 151.455,271.245 151.603,271.052 151.916 M195.409 154.391 C 194.331 155.486,193.527 156.439,193.624 156.508 C 193.721 156.578,194.682 155.682,195.760 154.518 C 198.239 151.840,198.005 151.756,195.409 154.391 M239.418 154.418 C 240.508 155.637,241.481 156.576,241.581 156.503 C 241.680 156.431,240.789 155.433,239.599 154.286 L 237.436 152.200 239.418 154.418 M268.000 152.745 C 268.000 152.934,268.450 153.003,269.000 152.898 C 269.550 152.793,270.000 152.638,270.000 152.553 C 270.000 152.469,269.550 152.400,269.000 152.400 C 268.450 152.400,268.000 152.555,268.000 152.745 M264.800 153.545 C 264.800 153.734,265.250 153.803,265.800 153.698 C 266.350 153.593,266.800 153.438,266.800 153.353 C 266.800 153.269,266.350 153.200,265.800 153.200 C 265.250 153.200,264.800 153.355,264.800 153.545 M349.552 158.313 C 349.421 159.107,349.479 159.481,349.701 159.259 C 349.903 159.057,350.001 158.467,349.919 157.946 C 349.793 157.145,349.737 157.202,349.552 158.313 M291.800 168.684 C 292.740 168.910,295.200 171.160,295.200 171.795 C 295.200 172.273,298.451 175.600,298.917 175.600 C 299.075 175.600,298.439 174.810,297.502 173.845 C 296.566 172.880,295.171 171.260,294.402 170.245 C 293.356 168.865,292.751 168.412,292.002 168.446 C 291.179 168.485,291.143 168.527,291.800 168.684 M288.800 169.200 C 287.845 169.506,287.857 169.522,289.076 169.560 C 289.778 169.582,290.464 169.420,290.600 169.200 C 290.884 168.740,290.236 168.740,288.800 169.200 M187.067 169.467 C 186.920 169.613,186.821 170.378,186.846 171.167 L 186.892 172.600 187.204 171.000 C 187.531 169.319,187.505 169.028,187.067 169.467 M285.800 170.000 L 284.600 170.305 285.876 170.353 C 286.578 170.379,287.264 170.220,287.400 170.000 C 287.674 169.557,287.540 169.557,285.800 170.000 M282.600 170.800 L 281.400 171.105 282.676 171.153 C 283.378 171.179,284.064 171.020,284.200 170.800 C 284.474 170.357,284.340 170.357,282.600 170.800 M279.200 171.600 C 278.245 171.906,278.257 171.922,279.476 171.960 C 280.178 171.982,280.864 171.820,281.000 171.600 C 281.284 171.140,280.636 171.140,279.200 171.600 M340.503 174.413 C 338.909 175.946,337.744 177.200,337.913 177.200 C 338.083 177.200,339.472 175.940,341.000 174.400 C 344.580 170.792,344.258 170.800,340.503 174.413 M276.200 172.400 C 275.006 172.704,275.007 172.706,276.500 172.753 C 277.325 172.779,278.000 172.620,278.000 172.400 C 278.000 171.959,277.932 171.959,276.200 172.400 M271.000 173.641 C 267.269 174.655,267.035 174.783,269.400 174.519 C 270.500 174.397,271.571 174.140,271.780 173.948 C 271.989 173.757,272.754 173.600,273.480 173.600 C 274.206 173.600,274.800 173.420,274.800 173.200 C 274.800 172.678,274.350 172.730,271.000 173.641 M258.600 176.800 C 258.096 177.017,258.022 177.144,258.400 177.144 C 258.730 177.144,259.360 176.989,259.800 176.800 C 260.304 176.583,260.378 176.456,260.000 176.456 C 259.670 176.456,259.040 176.611,258.600 176.800 M300.267 177.467 C 300.120 177.613,300.015 178.198,300.034 178.767 C 300.068 179.781,300.075 179.779,300.421 178.620 C 300.785 177.403,300.731 177.002,300.267 177.467 M336.000 178.000 C 335.450 178.430,335.197 178.786,335.438 178.791 C 335.679 178.796,336.202 178.440,336.600 178.000 C 337.512 176.992,337.288 176.992,336.000 178.000 M186.800 181.310 C 186.800 182.103,186.969 182.857,187.176 182.985 C 187.401 183.124,187.459 182.609,187.320 181.709 C 187.010 179.700,186.800 179.539,186.800 181.310 M248.067 181.467 C 248.030 182.164,247.884 183.064,247.741 183.467 C 247.543 184.028,247.597 184.095,247.968 183.753 C 248.252 183.492,248.388 182.658,248.295 181.753 C 248.152 180.373,248.127 180.342,248.067 181.467 M324.600 182.400 L 323.400 182.705 324.476 182.753 C 325.068 182.779,325.664 182.620,325.800 182.400 C 325.936 182.180,325.992 182.021,325.924 182.047 C 325.856 182.073,325.260 182.232,324.600 182.400 M297.867 185.467 C 297.720 185.613,297.600 186.143,297.600 186.643 C 297.600 187.143,297.420 187.664,297.200 187.800 C 296.980 187.936,296.818 188.622,296.841 189.324 L 296.882 190.600 297.215 189.400 C 297.880 187.006,298.314 185.200,298.225 185.200 C 298.174 185.200,298.013 185.320,297.867 185.467 M296.000 191.800 C 296.000 192.350,296.069 192.800,296.153 192.800 C 296.238 192.800,296.393 192.350,296.498 191.800 C 296.603 191.250,296.534 190.800,296.345 190.800 C 296.155 190.800,296.000 191.250,296.000 191.800 M317.552 192.713 C 317.421 193.507,317.479 193.881,317.701 193.659 C 317.903 193.457,318.001 192.867,317.919 192.346 C 317.793 191.545,317.737 191.602,317.552 192.713 M295.045 194.400 C 294.404 197.534,294.450 197.994,295.185 195.800 C 296.129 192.980,296.090 193.200,295.645 193.200 C 295.450 193.200,295.180 193.740,295.045 194.400 M195.600 198.200 C 197.017 199.630,198.267 200.800,198.377 200.800 C 198.487 200.800,197.417 199.630,196.000 198.200 C 194.583 196.770,193.333 195.600,193.223 195.600 C 193.113 195.600,194.183 196.770,195.600 198.200 M293.893 198.673 C 293.789 198.853,293.601 199.720,293.474 200.600 L 293.243 202.200 293.817 200.429 C 294.333 198.836,294.376 197.831,293.893 198.673 M315.102 200.600 C 314.997 201.150,315.066 201.600,315.255 201.600 C 315.445 201.600,315.600 201.150,315.600 200.600 C 315.600 200.050,315.531 199.600,315.447 199.600 C 315.362 199.600,315.207 200.050,315.102 200.600 M266.396 212.500 C 271.976 218.150,274.849 220.785,275.396 220.754 C 276.197 220.707,276.197 220.706,275.400 220.520 C 274.960 220.418,270.910 216.704,266.400 212.267 L 258.200 204.200 266.396 212.500 M228.600 205.200 C 227.911 205.496,227.967 205.548,228.998 205.572 C 230.020 205.596,232.072 207.462,242.998 218.300 L 255.800 231.000 242.802 217.900 C 235.654 210.695,229.714 204.813,229.602 204.828 C 229.491 204.844,229.040 205.011,228.600 205.200 M189.000 206.000 C 188.859 206.228,189.204 206.400,189.800 206.400 C 190.396 206.400,190.741 206.228,190.600 206.000 C 190.464 205.780,190.104 205.600,189.800 205.600 C 189.496 205.600,189.136 205.780,189.000 206.000 M208.000 206.055 C 208.000 206.245,208.450 206.400,209.000 206.400 C 209.550 206.400,210.000 206.331,210.000 206.247 C 210.000 206.162,209.550 206.007,209.000 205.902 C 208.450 205.797,208.000 205.866,208.000 206.055 M226.000 206.000 L 225.000 206.320 226.100 206.360 C 226.705 206.382,227.200 206.220,227.200 206.000 C 227.200 205.780,227.155 205.618,227.100 205.640 C 227.045 205.662,226.550 205.824,226.000 206.000 M182.652 206.716 C 182.544 206.890,183.073 206.961,183.828 206.873 C 184.583 206.785,185.200 206.642,185.200 206.556 C 185.200 206.255,182.845 206.403,182.652 206.716 M210.400 206.715 C 210.400 207.217,214.454 207.584,214.980 207.129 C 215.189 206.948,214.649 206.798,213.780 206.795 C 212.911 206.792,211.795 206.681,211.300 206.548 C 210.797 206.413,210.400 206.487,210.400 206.715 M221.800 206.800 L 219.800 207.074 222.300 207.137 C 223.742 207.173,224.800 207.031,224.800 206.800 C 224.800 206.580,224.575 206.428,224.300 206.463 C 224.025 206.497,222.900 206.649,221.800 206.800 M216.000 207.600 C 216.330 207.813,217.050 207.988,217.600 207.988 C 218.150 207.988,218.870 207.813,219.200 207.600 C 219.627 207.324,219.166 207.212,217.600 207.212 C 216.034 207.212,215.573 207.324,216.000 207.600 M205.754 210.931 C 206.168 211.189,207.068 211.840,207.754 212.378 L 209.000 213.355 207.860 212.114 C 207.233 211.431,206.333 210.780,205.860 210.667 C 205.055 210.475,205.048 210.491,205.754 210.931 M167.385 215.300 L 165.400 217.400 167.592 215.400 C 168.797 214.300,169.862 213.355,169.958 213.300 C 170.055 213.245,169.962 213.200,169.752 213.200 C 169.542 213.200,168.477 214.145,167.385 215.300 M210.991 215.191 C 212.069 216.286,213.027 217.106,213.120 217.014 C 213.369 216.765,209.939 213.200,209.450 213.200 C 209.219 213.200,209.912 214.096,210.991 215.191 M284.989 217.617 C 284.859 217.828,284.234 218.000,283.600 218.000 C 282.966 218.000,282.352 218.154,282.235 218.343 C 282.052 218.639,285.998 218.128,286.317 217.814 C 286.382 217.751,286.163 217.594,285.830 217.467 C 285.498 217.339,285.119 217.407,284.989 217.617 M214.229 218.881 C 214.857 219.696,215.458 220.275,215.565 220.169 C 215.672 220.062,215.158 219.395,214.423 218.687 L 213.087 217.400 214.229 218.881 M161.672 222.843 C 161.192 223.741,160.802 224.774,160.804 225.138 C 160.806 225.502,161.260 224.829,161.812 223.642 C 163.008 221.074,162.911 220.521,161.672 222.843 M217.072 223.491 C 217.473 224.201,217.866 224.587,217.947 224.349 C 218.028 224.111,217.701 223.530,217.219 223.058 L 216.345 222.200 217.072 223.491 M218.739 227.587 C 219.102 228.680,219.460 229.299,219.534 228.963 C 219.656 228.407,218.559 225.600,218.220 225.600 C 218.141 225.600,218.375 226.494,218.739 227.587 M315.400 229.600 C 316.259 230.480,317.052 231.200,317.162 231.200 C 317.272 231.200,316.659 230.480,315.800 229.600 C 314.941 228.720,314.148 228.000,314.038 228.000 C 313.928 228.000,314.541 228.720,315.400 229.600 M220.099 230.952 C 220.714 231.625,222.987 232.227,222.610 231.616 C 222.468 231.387,221.949 231.200,221.456 231.200 C 220.963 231.200,220.343 231.021,220.079 230.801 C 219.776 230.551,219.784 230.607,220.099 230.952 M223.800 232.200 C 224.771 232.532,228.353 232.647,228.163 232.340 C 228.047 232.153,226.928 232.014,225.676 232.032 C 224.424 232.049,223.580 232.125,223.800 232.200 M230.400 233.025 C 231.803 233.335,234.318 233.390,234.143 233.107 C 234.038 232.938,233.018 232.821,231.876 232.846 C 230.734 232.872,230.070 232.952,230.400 233.025 M236.400 233.823 C 237.886 234.147,239.926 234.203,239.748 233.916 C 239.641 233.742,238.708 233.621,237.676 233.646 C 236.644 233.672,236.070 233.752,236.400 233.823 M242.200 234.603 C 243.114 234.921,245.529 235.009,245.348 234.716 C 245.241 234.542,244.398 234.414,243.476 234.432 C 242.554 234.449,241.980 234.526,242.200 234.603 M158.528 237.200 C 158.528 238.630,158.601 239.215,158.689 238.500 C 158.778 237.785,158.778 236.615,158.689 235.900 C 158.601 235.185,158.528 235.770,158.528 237.200 M248.000 235.423 C 249.486 235.747,251.526 235.803,251.348 235.516 C 251.241 235.342,250.308 235.221,249.276 235.246 C 248.244 235.272,247.670 235.352,248.000 235.423 M254.000 236.158 C 254.000 236.245,254.705 236.383,255.566 236.465 C 256.428 236.548,257.047 236.476,256.943 236.307 C 256.753 236.000,254.000 235.860,254.000 236.158 M322.302 241.800 C 322.407 242.350,322.562 242.800,322.647 242.800 C 322.731 242.800,322.800 242.350,322.800 241.800 C 322.800 241.250,322.645 240.800,322.455 240.800 C 322.266 240.800,322.197 241.250,322.302 241.800 M322.945 243.900 C 324.079 247.883,324.067 255.277,322.919 259.960 C 322.756 260.622,322.825 260.832,323.142 260.636 C 323.394 260.480,323.600 259.654,323.600 258.800 C 323.600 257.946,323.780 257.136,324.000 257.000 C 324.230 256.858,324.400 254.737,324.400 252.000 C 324.400 249.263,324.230 247.142,324.000 247.000 C 323.780 246.864,323.600 245.953,323.600 244.976 C 323.600 243.984,323.412 243.200,323.173 243.200 C 322.938 243.200,322.836 243.515,322.945 243.900 M160.423 248.522 C 160.374 249.201,161.994 252.296,162.680 252.835 C 163.349 253.360,163.358 253.347,162.800 252.642 C 162.470 252.225,161.805 251.055,161.323 250.042 C 160.841 249.029,160.436 248.345,160.423 248.522 M217.300 252.287 C 217.905 252.378,218.895 252.378,219.500 252.287 C 220.105 252.195,219.610 252.120,218.400 252.120 C 217.190 252.120,216.695 252.195,217.300 252.287 M221.200 252.859 C 221.200 253.046,222.325 253.186,223.700 253.168 C 226.540 253.133,226.383 252.944,223.300 252.690 C 222.145 252.595,221.200 252.671,221.200 252.859 M227.431 253.650 C 227.550 253.842,228.582 253.986,229.724 253.968 C 232.094 253.932,231.861 253.750,229.107 253.483 C 228.066 253.382,227.312 253.457,227.431 253.650 M233.002 254.404 C 233.137 254.622,234.347 254.800,235.690 254.800 C 238.734 254.800,238.573 254.589,235.279 254.260 C 233.654 254.097,232.845 254.149,233.002 254.404 M239.404 255.206 C 239.538 255.423,240.526 255.600,241.600 255.600 C 242.674 255.600,243.664 255.780,243.800 256.000 C 243.936 256.220,245.432 256.375,247.124 256.346 C 248.816 256.316,249.750 256.227,249.200 256.149 C 248.650 256.071,246.670 255.814,244.800 255.578 C 242.930 255.342,240.896 255.073,240.280 254.981 C 239.609 254.880,239.258 254.970,239.404 255.206 M164.800 256.245 C 164.800 256.453,166.015 257.788,167.500 259.212 L 170.200 261.800 167.600 259.010 C 166.170 257.476,164.955 256.141,164.900 256.044 C 164.845 255.946,164.800 256.037,164.800 256.245 M251.011 256.817 C 251.141 257.028,252.167 257.200,253.290 257.200 C 255.827 257.200,255.663 256.987,252.887 256.673 C 251.583 256.526,250.865 256.581,251.011 256.817 M210.181 260.100 L 208.600 261.800 210.300 260.219 C 211.235 259.349,212.000 258.584,212.000 258.519 C 212.000 258.216,211.652 258.519,210.181 260.100 M254.060 266.651 C 253.543 267.202,253.196 267.729,253.289 267.822 C 253.382 267.915,253.974 267.454,254.604 266.796 C 255.234 266.138,255.581 265.611,255.375 265.624 C 255.169 265.638,254.577 266.100,254.060 266.651 M183.034 267.656 C 183.151 267.845,183.741 268.000,184.344 268.000 C 184.947 268.000,185.613 268.173,185.823 268.383 C 186.064 268.624,186.428 268.627,186.803 268.389 C 187.331 268.056,187.331 268.010,186.800 267.989 C 186.470 267.976,185.440 267.818,184.511 267.638 C 183.573 267.457,182.916 267.464,183.034 267.656 M194.800 267.600 L 193.400 267.895 194.676 267.947 C 195.378 267.976,196.064 267.820,196.200 267.600 C 196.336 267.380,196.392 267.224,196.324 267.253 C 196.256 267.282,195.570 267.438,194.800 267.600 M187.600 268.500 C 187.600 268.665,188.399 268.800,189.376 268.800 C 190.353 268.800,191.236 268.665,191.338 268.500 C 191.440 268.335,190.641 268.200,189.562 268.200 C 188.483 268.200,187.600 268.335,187.600 268.500 M315.422 274.375 L 313.844 276.200 315.603 274.514 C 316.570 273.586,317.280 272.765,317.180 272.688 C 317.081 272.612,316.290 273.371,315.422 274.375 M233.295 277.533 C 233.018 277.709,234.278 277.861,236.095 277.871 C 238.105 277.882,239.086 277.765,238.600 277.572 C 237.541 277.154,233.934 277.127,233.295 277.533 M241.600 277.600 C 241.600 277.820,241.105 278.025,240.500 278.054 C 239.566 278.101,239.535 278.135,240.294 278.281 C 240.785 278.376,241.590 278.172,242.083 277.827 C 242.816 277.313,242.853 277.200,242.289 277.200 C 241.910 277.200,241.600 277.380,241.600 277.600 M229.293 278.580 C 227.699 279.460,227.750 279.690,229.400 279.060 C 230.280 278.723,231.360 278.368,231.800 278.270 C 232.297 278.160,232.145 278.090,231.400 278.086 C 230.740 278.082,229.792 278.304,229.293 278.580 M222.788 283.100 L 220.200 285.800 222.990 283.200 C 224.524 281.770,225.859 280.555,225.956 280.500 C 226.054 280.445,225.963 280.400,225.755 280.400 C 225.547 280.400,224.212 281.615,222.788 283.100 M271.489 281.230 C 271.978 281.739,272.478 282.055,272.601 281.932 C 272.724 281.809,272.324 281.392,271.712 281.006 L 270.600 280.304 271.489 281.230 M264.000 285.800 C 263.483 286.350,263.190 286.800,263.348 286.800 C 263.507 286.800,264.086 286.350,264.636 285.800 C 265.186 285.250,265.480 284.800,265.288 284.800 C 265.096 284.800,264.517 285.250,264.000 285.800 M282.360 285.720 C 282.546 285.906,283.306 285.996,284.049 285.919 C 285.367 285.783,285.358 285.775,283.710 285.580 C 282.781 285.471,282.173 285.533,282.360 285.720 M286.800 286.500 C 286.800 286.665,287.959 286.800,289.376 286.800 C 290.793 286.800,292.036 286.665,292.138 286.500 C 292.240 286.335,291.081 286.200,289.562 286.200 C 288.043 286.200,286.800 286.335,286.800 286.500 M293.600 286.228 C 293.600 286.850,296.984 293.576,297.304 293.588 C 297.471 293.595,296.775 291.935,295.758 289.900 C 293.808 286.001,293.600 285.647,293.600 286.228 M320.887 294.181 C 322.913 298.241,324.644 301.489,324.733 301.400 C 324.967 301.167,317.858 286.828,317.501 286.813 C 317.337 286.806,318.861 290.122,320.887 294.181 M258.400 290.800 C 257.190 291.890,256.380 292.778,256.600 292.774 C 256.820 292.770,257.900 291.875,259.000 290.787 C 261.574 288.239,261.234 288.247,258.400 290.800 M255.021 293.577 C 254.634 294.004,254.412 294.589,254.527 294.877 C 254.689 295.280,254.744 295.269,254.768 294.831 C 254.786 294.519,255.098 293.934,255.462 293.531 C 255.826 293.129,256.034 292.800,255.924 292.800 C 255.814 292.800,255.408 293.150,255.021 293.577 M297.600 294.254 C 297.600 294.896,298.578 296.794,298.910 296.797 C 299.081 296.799,298.923 296.215,298.559 295.500 C 297.779 293.965,297.600 293.733,297.600 294.254 M216.667 295.467 C 216.289 295.844,216.335 297.513,216.729 297.756 C 216.910 297.868,217.045 297.339,217.029 296.581 C 217.013 295.823,216.985 295.202,216.967 295.201 C 216.948 295.201,216.813 295.320,216.667 295.467 M254.390 299.681 C 254.284 300.716,254.345 301.415,254.526 301.234 C 254.707 301.053,254.793 300.207,254.719 299.353 L 254.583 297.800 254.390 299.681 M217.200 300.976 C 217.200 301.513,217.347 302.044,217.528 302.155 C 217.708 302.267,217.777 301.827,217.682 301.179 C 217.472 299.749,217.200 299.635,217.200 300.976 M335.200 304.400 C 336.190 304.568,337.677 304.893,338.504 305.122 C 339.357 305.358,339.910 305.378,339.781 305.169 C 339.655 304.966,339.214 304.800,338.800 304.800 C 338.386 304.800,337.936 304.620,337.800 304.400 C 337.664 304.180,336.618 304.021,335.476 304.047 L 333.400 304.094 335.200 304.400 M222.400 310.200 C 223.146 310.970,223.847 311.600,223.957 311.600 C 224.067 311.600,223.546 310.970,222.800 310.200 C 222.054 309.430,221.353 308.800,221.243 308.800 C 221.133 308.800,221.654 309.430,222.400 310.200 M352.014 313.010 C 353.436 314.556,354.682 315.764,354.781 315.695 C 354.881 315.627,353.718 314.362,352.196 312.885 L 349.428 310.200 352.014 313.010 M232.000 315.280 C 232.000 315.456,232.630 315.600,233.400 315.600 C 234.170 315.600,234.800 315.530,234.800 315.444 C 234.800 315.358,234.170 315.214,233.400 315.124 C 232.630 315.034,232.000 315.104,232.000 315.280 M238.200 315.200 L 236.600 315.486 238.076 315.543 C 238.888 315.574,239.664 315.420,239.800 315.200 C 239.936 314.980,239.992 314.826,239.924 314.857 C 239.856 314.888,239.080 315.042,238.200 315.200 M356.646 318.899 C 357.265 319.924,357.824 320.710,357.887 320.646 C 358.104 320.429,356.787 318.087,356.152 317.560 C 355.805 317.272,356.027 317.875,356.646 318.899 M301.380 322.985 C 301.019 323.747,300.788 324.565,300.868 324.804 C 300.948 325.043,301.316 324.420,301.687 323.419 C 302.485 321.268,302.311 321.023,301.380 322.985 M300.154 326.177 C 300.032 326.494,300.003 327.079,300.089 327.477 C 300.187 327.928,300.324 327.712,300.454 326.900 C 300.671 325.538,300.530 325.196,300.154 326.177 M299.467 329.067 C 299.098 329.436,299.129 340.309,299.500 340.538 C 299.665 340.640,299.800 338.040,299.800 334.761 C 299.800 331.482,299.785 328.800,299.767 328.800 C 299.748 328.800,299.613 328.920,299.467 329.067 M361.000 335.202 C 361.000 337.139,361.135 338.641,361.300 338.539 C 361.465 338.436,361.600 336.934,361.600 335.200 C 361.600 333.466,361.465 331.964,361.300 331.863 C 361.135 331.761,361.000 333.264,361.000 335.202 M300.000 342.576 C 300.000 343.113,300.147 343.644,300.328 343.755 C 300.508 343.867,300.577 343.427,300.482 342.779 C 300.272 341.349,300.000 341.235,300.000 342.576 M353.418 355.182 L 351.436 357.400 353.599 355.314 C 354.789 354.167,355.680 353.169,355.581 353.097 C 355.481 353.024,354.508 353.963,353.418 355.182 M306.400 354.933 C 306.400 355.217,309.581 358.400,309.865 358.400 C 310.178 358.400,309.908 358.076,308.200 356.400 C 307.210 355.428,306.400 354.768,306.400 354.933 M349.775 358.900 L 348.600 360.200 349.900 359.025 C 350.615 358.379,351.200 357.794,351.200 357.725 C 351.200 357.416,350.870 357.688,349.775 358.900 M311.487 359.609 C 312.195 360.351,312.842 360.878,312.925 360.779 C 313.008 360.681,312.429 360.073,311.638 359.429 L 310.200 358.258 311.487 359.609 M314.289 361.630 C 314.778 362.139,315.278 362.455,315.401 362.332 C 315.524 362.209,315.124 361.792,314.512 361.406 L 313.400 360.704 314.289 361.630 M323.541 365.301 C 323.743 365.503,324.333 365.601,324.854 365.519 C 325.655 365.393,325.598 365.337,324.487 365.152 C 323.693 365.021,323.319 365.079,323.541 365.301 M336.200 365.200 L 335.000 365.505 336.476 365.553 C 337.288 365.579,338.064 365.420,338.200 365.200 C 338.477 364.751,337.963 364.751,336.200 365.200 M329.064 366.100 C 329.306 366.496,331.898 366.488,332.144 366.090 C 332.249 365.920,331.558 365.785,330.608 365.790 C 329.657 365.796,328.962 365.935,329.064 366.100 " stroke="none" fill="#c064b0" fill-rule="evenodd"></path><path id="path4" d="M318.991 121.100 C 322.505 121.167,325.556 121.396,325.771 121.611 C 325.985 121.825,326.718 122.000,327.400 122.000 C 328.082 122.000,328.837 122.197,329.078 122.438 C 329.318 122.678,329.849 122.789,330.258 122.684 C 330.883 122.523,330.862 122.486,330.124 122.446 C 329.642 122.421,329.136 122.220,329.000 122.000 C 328.864 121.780,328.144 121.600,327.400 121.600 C 326.656 121.600,325.936 121.420,325.800 121.200 C 325.648 120.954,323.061 120.834,319.076 120.889 L 312.600 120.978 318.991 121.100 M310.200 122.000 C 310.064 122.220,309.639 122.400,309.255 122.400 C 308.581 122.400,304.400 124.315,304.400 124.623 C 304.400 124.847,305.621 124.354,307.112 123.527 C 307.834 123.127,308.743 122.800,309.132 122.800 C 309.521 122.800,310.011 122.635,310.220 122.434 C 310.429 122.232,311.050 121.987,311.600 121.888 C 312.599 121.709,312.599 121.709,311.524 121.654 C 310.932 121.625,310.336 121.780,310.200 122.000 M302.400 125.433 C 301.842 125.743,301.665 125.985,302.000 125.981 C 302.330 125.978,302.949 125.710,303.376 125.387 C 304.339 124.659,303.745 124.687,302.400 125.433 M291.300 137.953 C 290.365 139.855,289.600 141.688,289.600 142.026 C 289.600 142.364,289.407 142.833,289.171 143.069 C 288.935 143.305,288.816 144.106,288.907 144.849 L 289.072 146.200 289.136 144.724 C 289.171 143.912,289.380 143.136,289.600 143.000 C 289.820 142.864,290.000 142.428,290.000 142.032 C 290.000 141.635,290.724 139.903,291.609 138.182 C 292.494 136.462,293.169 134.928,293.109 134.774 C 293.049 134.620,292.235 136.051,291.300 137.953 M346.802 137.039 C 346.800 137.537,347.976 140.000,348.217 140.000 C 348.412 140.000,348.013 138.928,347.324 137.600 C 347.038 137.050,346.804 136.797,346.802 137.039 M348.432 141.076 C 348.414 141.558,348.580 142.064,348.800 142.200 C 349.020 142.336,349.200 142.876,349.200 143.400 C 349.200 143.924,349.363 144.454,349.563 144.577 C 349.951 144.817,349.750 143.514,349.196 142.200 C 349.010 141.760,348.770 141.130,348.661 140.800 C 348.536 140.421,348.452 140.523,348.432 141.076 M350.120 148.000 C 350.120 149.210,350.195 149.705,350.287 149.100 C 350.378 148.495,350.378 147.505,350.287 146.900 C 350.195 146.295,350.120 146.790,350.120 148.000 M195.385 154.100 L 193.400 156.200 195.400 154.348 C 196.500 153.329,197.670 152.398,198.000 152.279 C 198.523 152.091,198.521 152.059,197.985 152.032 C 197.647 152.014,196.477 152.945,195.385 154.100 M237.200 152.279 C 237.530 152.398,238.700 153.329,239.800 154.348 L 241.800 156.200 239.815 154.100 C 238.723 152.945,237.553 152.014,237.215 152.032 C 236.679 152.059,236.677 152.091,237.200 152.279 M266.100 153.076 C 266.485 153.176,267.115 153.176,267.500 153.076 C 267.885 152.975,267.570 152.893,266.800 152.893 C 266.030 152.893,265.715 152.975,266.100 153.076 M262.900 153.876 C 263.285 153.976,263.915 153.976,264.300 153.876 C 264.685 153.775,264.370 153.693,263.600 153.693 C 262.830 153.693,262.515 153.775,262.900 153.876 M260.800 154.288 C 260.250 154.387,259.629 154.632,259.420 154.834 C 259.211 155.035,258.457 155.200,257.744 155.200 C 257.031 155.200,256.336 155.380,256.200 155.600 C 256.064 155.820,255.369 156.000,254.656 156.000 C 253.943 156.000,253.189 156.167,252.980 156.371 C 252.771 156.576,251.970 156.817,251.200 156.907 L 249.800 157.072 251.276 157.136 C 252.088 157.171,252.864 157.020,253.000 156.800 C 253.136 156.580,253.856 156.400,254.600 156.400 C 255.344 156.400,256.064 156.220,256.200 156.000 C 256.336 155.780,257.056 155.600,257.800 155.600 C 258.544 155.600,259.264 155.420,259.400 155.200 C 259.536 154.980,260.076 154.800,260.600 154.800 C 261.124 154.800,261.664 154.620,261.800 154.400 C 261.936 154.180,261.992 154.025,261.924 154.054 C 261.856 154.084,261.350 154.190,260.800 154.288 M192.191 157.922 C 191.747 158.515,191.117 159.540,190.792 160.200 C 190.467 160.860,190.044 161.514,189.852 161.654 C 189.660 161.793,189.576 162.128,189.666 162.398 C 189.756 162.667,190.262 162.013,190.792 160.944 C 191.321 159.875,192.203 158.505,192.752 157.900 C 193.301 157.295,193.581 156.810,193.375 156.822 C 193.169 156.834,192.636 157.329,192.191 157.922 M242.400 157.800 C 243.099 158.544,243.706 158.783,244.770 158.733 L 246.200 158.666 244.688 158.508 C 243.749 158.410,242.992 158.056,242.692 157.575 C 242.425 157.149,242.039 156.800,241.834 156.800 C 241.629 156.800,241.883 157.250,242.400 157.800 M247.700 157.876 C 248.085 157.976,248.715 157.976,249.100 157.876 C 249.485 157.775,249.170 157.693,248.400 157.693 C 247.630 157.693,247.315 157.775,247.700 157.876 M349.467 159.467 C 349.320 159.613,349.200 160.143,349.200 160.643 C 349.200 161.143,349.020 161.664,348.800 161.800 C 348.580 161.936,348.414 162.442,348.432 162.924 C 348.452 163.477,348.536 163.579,348.661 163.200 C 348.770 162.870,349.010 162.240,349.196 161.800 C 349.562 160.931,349.984 159.200,349.829 159.200 C 349.776 159.200,349.613 159.320,349.467 159.467 M347.429 165.261 C 347.083 165.955,346.801 166.720,346.802 166.961 C 346.805 167.403,347.614 166.002,348.109 164.700 C 348.549 163.543,348.103 163.911,347.429 165.261 M186.561 176.400 C 186.561 179.810,186.622 181.205,186.697 179.500 C 186.772 177.795,186.772 175.005,186.697 173.300 C 186.622 171.595,186.561 172.990,186.561 176.400 M266.900 175.076 C 267.285 175.176,267.915 175.176,268.300 175.076 C 268.685 174.975,268.370 174.893,267.600 174.893 C 266.830 174.893,266.515 174.975,266.900 175.076 M263.700 175.876 C 264.085 175.976,264.715 175.976,265.100 175.876 C 265.485 175.775,265.170 175.693,264.400 175.693 C 263.630 175.693,263.315 175.775,263.700 175.876 M261.400 176.400 L 260.200 176.705 261.276 176.753 C 261.868 176.779,262.464 176.620,262.600 176.400 C 262.736 176.180,262.792 176.021,262.724 176.047 C 262.656 176.073,262.060 176.232,261.400 176.400 M257.800 177.200 L 256.200 177.486 257.676 177.543 C 258.488 177.574,259.264 177.420,259.400 177.200 C 259.536 176.980,259.592 176.826,259.524 176.857 C 259.456 176.888,258.680 177.042,257.800 177.200 M254.100 178.276 C 254.485 178.376,255.115 178.376,255.500 178.276 C 255.885 178.175,255.570 178.093,254.800 178.093 C 254.030 178.093,253.715 178.175,254.100 178.276 M250.900 179.076 C 251.285 179.176,251.915 179.176,252.300 179.076 C 252.685 178.975,252.370 178.893,251.600 178.893 C 250.830 178.893,250.515 178.975,250.900 179.076 M248.556 180.171 C 248.435 180.485,248.416 181.160,248.514 181.671 C 248.652 182.397,248.703 182.323,248.746 181.333 C 248.775 180.637,249.025 179.976,249.300 179.865 C 249.692 179.707,249.689 179.656,249.287 179.632 C 249.006 179.614,248.676 179.857,248.556 180.171 M325.800 182.400 C 325.664 182.620,324.595 182.800,323.425 182.800 C 321.868 182.800,321.156 182.987,320.768 183.500 C 320.318 184.096,320.322 184.125,320.799 183.700 C 321.108 183.425,322.278 183.200,323.400 183.200 C 324.522 183.200,325.611 183.034,325.820 182.831 C 326.029 182.628,326.740 182.385,327.400 182.291 L 328.600 182.120 327.324 182.060 C 326.622 182.027,325.936 182.180,325.800 182.400 M187.293 184.400 C 187.293 185.170,187.375 185.485,187.476 185.100 C 187.576 184.715,187.576 184.085,187.476 183.700 C 187.375 183.315,187.293 183.630,187.293 184.400 M246.846 186.662 C 246.821 187.136,246.403 188.269,245.917 189.179 L 245.034 190.833 260.016 205.716 L 274.999 220.600 260.225 205.723 L 245.450 190.846 246.364 189.071 C 246.866 188.094,247.191 186.959,247.085 186.547 C 246.919 185.902,246.886 185.918,246.846 186.662 M188.846 188.239 C 188.797 189.132,189.808 191.434,190.415 191.809 C 190.615 191.933,191.074 192.656,191.435 193.417 C 191.796 194.178,192.279 194.800,192.508 194.800 C 192.737 194.800,192.626 194.471,192.262 194.069 C 191.898 193.666,191.600 193.148,191.600 192.917 C 191.600 192.687,191.327 192.271,190.993 191.994 C 190.349 191.460,189.375 189.534,189.074 188.200 C 188.900 187.434,188.891 187.435,188.846 188.239 M192.800 195.445 C 192.800 195.653,194.015 196.988,195.500 198.412 L 198.200 201.000 195.600 198.210 C 194.170 196.676,192.955 195.341,192.900 195.244 C 192.845 195.146,192.800 195.237,192.800 195.445 M184.500 206.291 C 185.325 206.378,186.675 206.378,187.500 206.291 C 188.325 206.205,187.650 206.134,186.000 206.134 C 184.350 206.134,183.675 206.205,184.500 206.291 M192.800 206.297 C 194.010 206.379,195.171 206.616,195.380 206.823 C 195.589 207.030,196.318 207.200,197.000 207.200 C 197.682 207.200,198.435 207.395,198.674 207.634 C 198.912 207.872,199.533 207.987,200.054 207.888 C 200.940 207.720,200.932 207.705,199.924 207.654 C 199.332 207.625,198.736 207.420,198.600 207.200 C 198.464 206.980,197.744 206.800,197.000 206.800 C 196.256 206.800,195.536 206.620,195.400 206.400 C 195.264 206.180,194.128 206.033,192.876 206.074 L 190.600 206.148 192.800 206.297 M291.467 206.267 C 291.320 206.413,291.200 206.943,291.200 207.443 C 291.200 207.943,291.020 208.464,290.800 208.600 C 290.580 208.736,290.400 209.276,290.400 209.800 C 290.400 210.324,290.220 210.864,290.000 211.000 C 289.780 211.136,289.600 211.651,289.600 212.144 C 289.600 212.637,289.407 213.233,289.171 213.469 C 288.935 213.705,288.816 214.506,288.907 215.249 L 289.072 216.600 289.136 215.124 C 289.171 214.312,289.380 213.536,289.600 213.400 C 289.820 213.264,290.000 212.724,290.000 212.200 C 290.000 211.676,290.180 211.136,290.400 211.000 C 290.620 210.864,290.800 210.324,290.800 209.800 C 290.800 209.276,290.959 208.749,291.154 208.629 C 291.349 208.508,291.587 207.868,291.685 207.205 C 291.876 205.903,291.867 205.866,291.467 206.267 M313.254 207.276 C 313.225 207.868,313.020 208.464,312.800 208.600 C 312.580 208.736,312.400 209.456,312.400 210.200 C 312.400 210.944,312.220 211.664,312.000 211.800 C 311.780 211.936,311.600 212.476,311.600 213.000 C 311.600 213.524,311.420 214.064,311.200 214.200 C 310.980 214.336,310.800 214.851,310.800 215.344 C 310.800 215.837,310.607 216.433,310.371 216.669 C 310.135 216.905,310.016 217.706,310.107 218.449 L 310.272 219.800 310.336 218.324 C 310.371 217.512,310.580 216.736,310.800 216.600 C 311.020 216.464,311.200 215.924,311.200 215.400 C 311.200 214.876,311.380 214.336,311.600 214.200 C 311.820 214.064,312.000 213.524,312.000 213.000 C 312.000 212.476,312.180 211.936,312.400 211.800 C 312.620 211.664,312.800 210.969,312.800 210.256 C 312.800 209.543,312.995 208.765,313.234 208.526 C 313.472 208.288,313.587 207.667,313.488 207.146 C 313.320 206.260,313.305 206.268,313.254 207.276 M167.200 215.000 C 166.228 215.990,165.523 216.800,165.633 216.800 C 165.743 216.800,166.628 215.990,167.600 215.000 C 168.572 214.010,169.277 213.200,169.167 213.200 C 169.057 213.200,168.172 214.010,167.200 215.000 M215.600 220.072 C 215.600 220.506,216.869 222.796,217.235 223.022 C 217.447 223.152,217.236 222.571,216.767 221.730 C 215.867 220.115,215.600 219.736,215.600 220.072 M308.962 223.500 C 309.381 223.995,309.917 224.400,310.154 224.400 C 310.390 224.400,312.117 225.885,313.992 227.700 L 317.400 231.000 314.009 227.500 C 312.144 225.575,310.448 224.000,310.240 224.000 C 310.033 224.000,309.489 223.685,309.031 223.300 C 308.201 222.601,308.201 222.601,308.962 223.500 M254.592 230.296 C 259.092 234.898,259.339 235.233,258.702 235.870 C 258.150 236.421,257.853 236.462,257.112 236.091 C 256.084 235.575,251.172 235.236,251.461 235.700 C 251.563 235.865,252.719 236.000,254.029 236.000 C 255.339 236.000,256.766 236.222,257.201 236.493 C 257.872 236.912,258.126 236.851,258.889 236.089 L 259.787 235.191 254.796 230.295 L 249.804 225.400 254.592 230.296 M159.293 228.800 C 159.293 229.570,159.375 229.885,159.476 229.500 C 159.576 229.115,159.576 228.485,159.476 228.100 C 159.375 227.715,159.293 228.030,159.293 228.800 M158.520 232.800 C 158.520 234.010,158.595 234.505,158.687 233.900 C 158.778 233.295,158.778 232.305,158.687 231.700 C 158.595 231.095,158.520 231.590,158.520 232.800 M234.366 233.326 C 234.547 233.507,235.393 233.593,236.247 233.519 L 237.800 233.383 235.919 233.190 C 234.884 233.084,234.185 233.145,234.366 233.326 M239.966 234.126 C 240.147 234.307,240.993 234.393,241.847 234.319 L 243.400 234.183 241.519 233.990 C 240.484 233.884,239.785 233.945,239.966 234.126 M245.565 234.926 C 245.744 235.105,246.681 235.191,247.646 235.118 L 249.400 234.985 247.319 234.793 C 246.175 234.687,245.385 234.747,245.565 234.926 M158.400 242.176 C 158.400 242.933,158.538 243.638,158.707 243.743 C 158.876 243.847,158.948 243.228,158.865 242.366 C 158.681 240.432,158.400 240.318,158.400 242.176 M215.632 253.638 C 215.614 253.989,215.240 254.602,214.800 255.000 C 214.360 255.398,214.000 255.926,214.000 256.174 C 214.000 256.713,209.253 261.416,208.400 261.722 C 207.874 261.910,207.875 261.941,208.411 261.968 C 209.045 262.001,214.400 256.857,214.400 256.216 C 214.400 256.015,214.779 255.448,215.243 254.954 C 215.706 254.461,215.991 253.819,215.874 253.529 C 215.724 253.152,215.654 253.183,215.632 253.638 M255.202 257.676 C 255.201 258.048,255.380 258.464,255.600 258.600 C 255.820 258.736,256.000 259.431,256.000 260.144 C 256.000 260.857,256.166 261.611,256.369 261.820 C 256.572 262.029,256.815 262.740,256.909 263.400 L 257.080 264.600 257.140 263.324 C 257.173 262.622,257.020 261.936,256.800 261.800 C 256.580 261.664,256.400 261.044,256.400 260.422 C 256.400 259.800,256.131 258.776,255.802 258.146 C 255.424 257.421,255.204 257.248,255.202 257.676 M170.000 261.882 C 170.330 262.003,171.050 262.484,171.600 262.951 L 172.600 263.800 171.630 262.700 C 171.097 262.095,170.377 261.614,170.030 261.632 C 169.491 261.659,169.486 261.695,170.000 261.882 M203.200 265.038 C 202.210 265.563,201.620 265.994,201.888 265.996 C 202.308 265.999,205.084 264.612,205.567 264.157 C 206.012 263.737,204.812 264.184,203.200 265.038 M175.411 265.334 C 176.296 265.932,177.600 266.458,177.600 266.217 C 177.600 266.037,175.198 264.800,174.850 264.800 C 174.724 264.800,174.977 265.040,175.411 265.334 M180.800 267.355 C 180.800 267.440,181.330 267.587,181.979 267.682 C 182.627 267.777,183.067 267.708,182.955 267.528 C 182.757 267.207,180.800 267.050,180.800 267.355 M191.452 268.316 C 191.344 268.490,191.918 268.567,192.728 268.487 C 194.942 268.269,195.205 268.067,193.324 268.032 C 192.402 268.014,191.559 268.142,191.452 268.316 M315.085 275.114 C 314.048 276.166,313.200 277.309,313.200 277.652 C 313.200 278.259,314.324 280.800,314.592 280.800 C 314.859 280.800,314.293 279.181,313.952 278.970 C 313.108 278.448,313.721 276.904,315.485 275.114 C 316.522 274.061,317.280 273.200,317.170 273.200 C 317.060 273.200,316.122 274.061,315.085 275.114 M216.780 293.890 C 216.671 294.819,216.733 295.427,216.920 295.240 C 217.106 295.054,217.196 294.294,217.119 293.551 C 216.983 292.233,216.975 292.242,216.780 293.890 M216.901 299.400 C 216.905 300.280,216.987 300.593,217.083 300.095 C 217.179 299.598,217.175 298.878,217.075 298.495 C 216.975 298.113,216.896 298.520,216.901 299.400 M325.728 303.000 C 325.805 303.752,326.110 303.801,330.805 303.818 L 335.800 303.836 330.927 303.706 C 326.732 303.595,326.026 303.481,325.850 302.888 C 325.697 302.372,325.666 302.400,325.728 303.000 M218.109 303.900 C 218.195 304.065,218.562 304.850,218.925 305.645 C 219.288 306.440,219.859 307.317,220.193 307.594 C 220.527 307.871,220.800 308.309,220.800 308.568 C 220.800 309.153,223.677 312.000,224.268 312.000 C 224.507 312.000,224.929 312.273,225.206 312.607 C 225.483 312.941,226.360 313.512,227.155 313.875 C 227.950 314.238,228.735 314.605,228.900 314.691 C 229.065 314.777,229.200 314.751,229.200 314.634 C 229.200 314.516,228.419 314.064,227.465 313.630 C 226.511 313.195,225.499 312.561,225.216 312.220 C 224.934 311.879,224.489 311.600,224.229 311.600 C 223.645 311.600,221.200 309.122,221.200 308.530 C 221.200 308.292,220.921 307.866,220.580 307.584 C 220.239 307.301,219.605 306.289,219.170 305.335 C 218.736 304.381,218.284 303.600,218.166 303.600 C 218.049 303.600,218.023 303.735,218.109 303.900 M338.561 304.687 C 338.979 304.795,339.930 305.224,340.673 305.641 C 341.416 306.058,342.291 306.400,342.618 306.400 C 343.256 306.400,344.520 307.037,345.793 308.000 C 346.526 308.554,346.545 308.547,346.051 307.908 C 345.456 307.139,343.366 306.000,342.551 306.000 C 342.261 306.000,341.383 305.640,340.600 305.200 C 339.817 304.760,338.866 304.421,338.488 304.446 C 337.911 304.485,337.923 304.524,338.561 304.687 M251.004 307.996 C 250.374 308.654,249.935 309.256,250.029 309.334 C 250.123 309.412,250.713 308.874,251.339 308.138 C 252.754 306.477,252.545 306.388,251.004 307.996 M304.290 308.300 C 304.436 308.685,305.061 309.963,305.678 311.141 C 306.295 312.318,306.814 313.578,306.832 313.941 C 306.853 314.382,306.932 314.429,307.071 314.083 C 307.254 313.625,304.565 307.600,304.178 307.600 C 304.094 307.600,304.144 307.915,304.290 308.300 M349.244 310.100 C 349.341 310.155,350.676 311.370,352.210 312.800 L 355.000 315.400 352.412 312.700 C 350.988 311.215,349.653 310.000,349.445 310.000 C 349.237 310.000,349.146 310.045,349.244 310.100 M247.170 311.834 C 246.636 312.403,245.435 313.218,244.500 313.644 C 243.565 314.071,242.800 314.516,242.800 314.634 C 242.800 314.751,242.935 314.777,243.100 314.691 C 243.265 314.605,244.039 314.243,244.821 313.886 C 245.603 313.529,246.593 312.848,247.021 312.371 C 247.449 311.895,248.160 311.358,248.600 311.178 C 249.175 310.943,249.223 310.844,248.770 310.825 C 248.423 310.811,247.703 311.265,247.170 311.834 M230.100 315.076 C 230.485 315.176,231.115 315.176,231.500 315.076 C 231.885 314.975,231.570 314.893,230.800 314.893 C 230.030 314.893,229.715 314.975,230.100 315.076 M239.800 315.200 C 239.664 315.420,237.898 315.637,235.876 315.681 L 232.200 315.763 235.593 315.899 C 237.460 315.974,239.350 315.855,239.793 315.634 C 240.237 315.414,241.050 315.160,241.600 315.071 C 242.430 314.936,242.384 314.900,241.324 314.854 C 240.622 314.825,239.936 314.980,239.800 315.200 M354.800 316.125 C 354.800 316.194,355.385 316.779,356.100 317.425 L 357.400 318.600 356.225 317.300 C 355.130 316.088,354.800 315.816,354.800 316.125 M358.286 321.606 C 358.402 322.050,358.655 322.510,358.848 322.630 C 359.042 322.749,359.214 323.242,359.232 323.724 C 359.249 324.206,359.356 324.368,359.470 324.085 C 359.584 323.802,359.381 322.947,359.020 322.185 C 358.285 320.638,357.967 320.386,358.286 321.606 M360.794 329.519 L 360.987 331.800 361.118 329.844 C 361.190 328.769,361.103 327.742,360.924 327.563 C 360.746 327.384,360.687 328.264,360.794 329.519 M361.734 335.200 C 361.734 336.850,361.805 337.525,361.891 336.700 C 361.978 335.875,361.978 334.525,361.891 333.700 C 361.805 332.875,361.734 333.550,361.734 335.200 M360.790 340.481 C 360.684 341.516,360.745 342.215,360.926 342.034 C 361.107 341.853,361.193 341.007,361.119 340.153 L 360.983 338.600 360.790 340.481 M352.386 356.700 L 350.200 359.000 352.500 356.814 C 354.637 354.782,354.983 354.400,354.686 354.400 C 354.624 354.400,353.589 355.435,352.386 356.700 M347.420 360.767 C 347.142 361.218,341.567 364.000,340.942 364.000 C 340.694 364.000,339.976 364.269,339.346 364.598 C 338.621 364.976,338.448 365.196,338.876 365.198 C 339.248 365.199,339.664 365.020,339.800 364.800 C 339.936 364.580,340.350 364.400,340.720 364.400 C 341.606 364.400,346.995 361.728,347.615 360.982 C 347.881 360.662,347.997 360.400,347.873 360.400 C 347.749 360.400,347.545 360.565,347.420 360.767 M320.800 364.956 C 320.800 365.042,321.417 365.185,322.172 365.273 C 322.927 365.361,323.456 365.290,323.348 365.116 C 323.155 364.803,320.800 364.655,320.800 364.956 M324.600 365.838 C 326.474 366.139,329.109 366.177,328.938 365.900 C 328.836 365.735,327.638 365.625,326.276 365.654 C 324.914 365.684,324.160 365.767,324.600 365.838 M333.507 365.890 C 334.226 365.979,335.306 365.977,335.907 365.886 C 336.508 365.795,335.920 365.722,334.600 365.724 C 333.280 365.726,332.788 365.801,333.507 365.890 " stroke="none" fill="#54c8b0" fill-rule="evenodd"></path></g></svg>